<?xml version="1.0" encoding="UTF-8" standalone="no"?>
<svg
   width="24"
   height="24"
   viewBox="0 0 24 24"
   fill="none"
   version="1.1"
   id="svg1"
   sodipodi:docname="ic_fluent_info_24_dark..svg"
   inkscape:version="1.3.2 (091e20e, 2023-11-25, custom)"
   xmlns:inkscape="http://www.inkscape.org/namespaces/inkscape"
   xmlns:sodipodi="http://sodipodi.sourceforge.net/DTD/sodipodi-0.dtd"
   xmlns="http://www.w3.org/2000/svg"
   xmlns:svg="http://www.w3.org/2000/svg">
  <defs
     id="defs1" />
  <sodipodi:namedview
     id="namedview1"
     pagecolor="#ffffff"
     bordercolor="#000000"
     borderopacity="0.25"
     inkscape:showpageshadow="2"
     inkscape:pageopacity="0.0"
     inkscape:pagecheckerboard="0"
     inkscape:deskcolor="#d1d1d1"
     inkscape:zoom="47.375"
     inkscape:cx="11.989446"
     inkscape:cy="12"
     inkscape:window-width="2560"
     inkscape:window-height="1351"
     inkscape:window-x="-9"
     inkscape:window-y="-9"
     inkscape:window-maximized="1"
     inkscape:current-layer="svg1" />
  <path
     d="M12.0001 1.99805C17.5238 1.99805 22.0016 6.47589 22.0016 11.9996C22.0016 17.5233 17.5238 22.0011 12.0001 22.0011C6.47638 22.0011 1.99854 17.5233 1.99854 11.9996C1.99854 6.47589 6.47638 1.99805 12.0001 1.99805ZM12.0001 3.49805C7.30481 3.49805 3.49854 7.30432 3.49854 11.9996C3.49854 16.6949 7.30481 20.5011 12.0001 20.5011C16.6954 20.5011 20.5016 16.6949 20.5016 11.9996C20.5016 7.30432 16.6954 3.49805 12.0001 3.49805ZM11.9964 10.4986C12.3761 10.4984 12.6901 10.7803 12.74 11.1464L12.7469 11.2481L12.7505 16.7497C12.7508 17.1639 12.4152 17.5 12.001 17.5002C11.6213 17.5005 11.3073 17.2185 11.2574 16.8525L11.2505 16.7507L11.2469 11.2491C11.2467 10.8349 11.5822 10.4989 11.9964 10.4986ZM12.0005 7.00086C12.5521 7.00086 12.9992 7.44798 12.9992 7.99953C12.9992 8.55107 12.5521 8.99819 12.0005 8.99819C11.449 8.99819 11.0019 8.55107 11.0019 7.99953C11.0019 7.44798 11.449 7.00086 12.0005 7.00086Z"
     fill="#212121"
     id="path1"
     style="fill:#ffffff;fill-opacity:1" />
</svg>
