<?xml version="1.0" encoding="UTF-8" standalone="no"?>
<svg
   width="24"
   height="24"
   viewBox="0 0 24 24"
   fill="none"
   version="1.1"
   id="svg1"
   sodipodi:docname="ic_fluent_flash_24_dark.svg"
   inkscape:version="1.4.2 (f4327f4, 2025-05-13)"
   xmlns:inkscape="http://www.inkscape.org/namespaces/inkscape"
   xmlns:sodipodi="http://sodipodi.sourceforge.net/DTD/sodipodi-0.dtd"
   xmlns="http://www.w3.org/2000/svg"
   xmlns:svg="http://www.w3.org/2000/svg">
  <defs
     id="defs1" />
  <sodipodi:namedview
     id="namedview1"
     pagecolor="#ffffff"
     bordercolor="#000000"
     borderopacity="0.25"
     inkscape:showpageshadow="2"
     inkscape:pageopacity="0.0"
     inkscape:pagecheckerboard="0"
     inkscape:deskcolor="#d1d1d1"
     inkscape:zoom="47.208333"
     inkscape:cx="12"
     inkscape:cy="12"
     inkscape:window-width="2560"
     inkscape:window-height="1351"
     inkscape:window-x="2391"
     inkscape:window-y="-9"
     inkscape:window-maximized="1"
     inkscape:current-layer="svg1" />
  <path
     d="M7.42505 2.83052C7.60245 2.33254 8.07392 2 8.60256 2H15.0562C15.9094 2 16.5118 2.83587 16.242 3.64528L14.7905 8H18.7492C19.8534 8 20.4153 9.32683 19.647 10.1198L8.586 21.536C7.53226 22.6236 5.71405 21.6422 6.04495 20.1645L7.31418 14.4964L5.74573 14.4904C4.53898 14.4858 3.69895 13.2899 4.10392 12.1532L7.42505 2.83052ZM8.77889 3.5L5.51693 12.6565C5.45908 12.8189 5.57909 12.9898 5.75148 12.9904L8.25277 13C8.47997 13.0009 8.69453 13.1047 8.83621 13.2823C8.97789 13.4599 9.03142 13.6922 8.98177 13.9139L7.50871 20.4923L18.1589 9.5H13.7499C13.5088 9.5 13.2824 9.38411 13.1415 9.18853C13.0005 8.99296 12.9622 8.74154 13.0384 8.51283L14.7093 3.5H8.77889Z"
     fill="#212121"
     id="path1"
     style="fill:#ffffff" />
</svg>
