<?xml version="1.0" encoding="UTF-8" standalone="no"?>
<svg
   width="24"
   height="24"
   viewBox="0 0 24 24"
   fill="none"
   version="1.1"
   id="svg1"
   sodipodi:docname="ic_fluent_cellular_data_2_24_regular.svg"
   inkscape:version="1.4.2 (f4327f4, 2025-05-13)"
   xmlns:inkscape="http://www.inkscape.org/namespaces/inkscape"
   xmlns:sodipodi="http://sodipodi.sourceforge.net/DTD/sodipodi-0.dtd"
   xmlns="http://www.w3.org/2000/svg"
   xmlns:svg="http://www.w3.org/2000/svg">
  <defs
     id="defs1" />
  <sodipodi:namedview
     id="namedview1"
     pagecolor="#ffffff"
     bordercolor="#000000"
     borderopacity="0.25"
     inkscape:showpageshadow="2"
     inkscape:pageopacity="0.0"
     inkscape:pagecheckerboard="0"
     inkscape:deskcolor="#d1d1d1"
     inkscape:zoom="22.627417"
     inkscape:cx="13.899068"
     inkscape:cy="17.876543"
     inkscape:window-width="2560"
     inkscape:window-height="1351"
     inkscape:window-x="2391"
     inkscape:window-y="-9"
     inkscape:window-maximized="1"
     inkscape:current-layer="svg1" />
  <g
     id="g9"
     transform="translate(-1.34375,-1.46875)">
    <g
       id="g5">
      <path
         d="m 3.1710062,9.7502208 c 0.3797,0 0.6935,0.2822002 0.7432,0.6482002 l 0.0068,0.1018 v 7.5 c 0,0.4142 -0.3358,0.75 -0.75,0.75 -0.3797,0 -0.6935,-0.2822 -0.7432,-0.6482 l -0.0068,-0.1018 v -7.5 c 0,-0.4142 0.3358,-0.7500002 0.75,-0.7500002 z"
         fill="#212121"
         id="path1"
         sodipodi:nodetypes="sccssccss" />
      <path
         d="m 6.5864617,9.7703167 c 0.3796999,0 0.6935,0.2822003 0.7431999,0.6482003 l 0.0068,0.1018 v 7.5 c 0,0.4142 -0.3358,0.75 -0.75,0.75 -0.3797003,0 -0.6935002,-0.2822 -0.7432002,-0.6482 l -0.0068,-0.1018 v -7.5 c 0,-0.4142 0.3357999,-0.7500003 0.7500003,-0.7500003 z"
         fill="#212121"
         id="path2"
         sodipodi:nodetypes="sccssccss" />
      <path
         d="m 2.849569,17.99853 c 4.475e-4,-0.379699 0.128259,-0.692762 0.2936028,-0.741508 l 0.045982,-0.0065 3.3870038,0.01956 c 0.1870524,0.0011 0.3383047,0.337754 0.3378171,0.751953 -4.474e-4,0.379699 -0.1282589,0.692762 -0.2936028,0.741507 l -0.045982,0.0065 -3.3870041,-0.01956 C 3.0003337,18.749382 2.8490815,18.412729 2.849569,17.99853 Z"
         fill="#212121"
         id="path5"
         sodipodi:nodetypes="sccssccss"
         style="stroke-width:0.672013" />
    </g>
    <g
       id="g8"
       transform="rotate(179.74727,6.6023006,14.266832)">
      <path
         d="m 3.1710062,9.7502208 c 0.3797,0 0.6935,0.2822002 0.7432,0.6482002 l 0.0068,0.1018 v 7.5 c 0,0.4142 -0.3358,0.75 -0.75,0.75 -0.3797,0 -0.6935,-0.2822 -0.7432,-0.6482 l -0.0068,-0.1018 v -7.5 c 0,-0.4142 0.3358,-0.7500002 0.75,-0.7500002 z"
         fill="#212121"
         id="path6"
         sodipodi:nodetypes="sccssccss" />
      <path
         d="m 6.5864617,9.7703167 c 0.3796999,0 0.6935,0.2822003 0.7431999,0.6482003 l 0.0068,0.1018 v 7.5 c 0,0.4142 -0.3358,0.75 -0.75,0.75 -0.3797003,0 -0.6935002,-0.2822 -0.7432002,-0.6482 l -0.0068,-0.1018 v -7.5 c 0,-0.4142 0.3357999,-0.7500003 0.7500003,-0.7500003 z"
         fill="#212121"
         id="path7"
         sodipodi:nodetypes="sccssccss" />
      <path
         d="m 2.849569,17.99853 c 4.475e-4,-0.379699 0.128259,-0.692762 0.2936028,-0.741508 l 0.045982,-0.0065 3.3870038,0.01956 c 0.1870524,0.0011 0.3383047,0.337754 0.3378171,0.751953 -4.474e-4,0.379699 -0.1282589,0.692762 -0.2936028,0.741507 l -0.045982,0.0065 -3.3870041,-0.01956 C 3.0003337,18.749382 2.8490815,18.412729 2.849569,17.99853 Z"
         fill="#212121"
         id="path8"
         sodipodi:nodetypes="sccssccss"
         style="stroke-width:0.672013" />
    </g>
  </g>
  <g
     id="g15"
     transform="translate(5.5726382,-1.4245558)">
    <g
       id="g11">
      <path
         d="m 3.1710062,9.7502208 c 0.3797,0 0.6935,0.2822002 0.7432,0.6482002 l 0.0068,0.1018 v 7.5 c 0,0.4142 -0.3358,0.75 -0.75,0.75 -0.3797,0 -0.6935,-0.2822 -0.7432,-0.6482 l -0.0068,-0.1018 v -7.5 c 0,-0.4142 0.3358,-0.7500002 0.75,-0.7500002 z"
         fill="#212121"
         id="path9"
         sodipodi:nodetypes="sccssccss" />
      <path
         d="m 6.5864617,9.7703167 c 0.3796999,0 0.6935,0.2822003 0.7431999,0.6482003 l 0.0068,0.1018 v 7.5 c 0,0.4142 -0.3358,0.75 -0.75,0.75 -0.3797003,0 -0.6935002,-0.2822 -0.7432002,-0.6482 l -0.0068,-0.1018 v -7.5 c 0,-0.4142 0.3357999,-0.7500003 0.7500003,-0.7500003 z"
         fill="#212121"
         id="path10"
         sodipodi:nodetypes="sccssccss" />
      <path
         d="m 2.849569,17.99853 c 4.475e-4,-0.379699 0.128259,-0.692762 0.2936028,-0.741508 l 0.045982,-0.0065 3.3870038,0.01956 c 0.1870524,0.0011 0.3383047,0.337754 0.3378171,0.751953 -4.474e-4,0.379699 -0.1282589,0.692762 -0.2936028,0.741507 l -0.045982,0.0065 -3.3870041,-0.01956 C 3.0003337,18.749382 2.8490815,18.412729 2.849569,17.99853 Z"
         fill="#212121"
         id="path11"
         sodipodi:nodetypes="sccssccss"
         style="stroke-width:0.672013" />
    </g>
    <g
       id="g14"
       transform="rotate(179.74727,6.6023006,14.266832)">
      <path
         d="m 3.1710062,9.7502208 c 0.3797,0 0.6935,0.2822002 0.7432,0.6482002 l 0.0068,0.1018 v 7.5 c 0,0.4142 -0.3358,0.75 -0.75,0.75 -0.3797,0 -0.6935,-0.2822 -0.7432,-0.6482 l -0.0068,-0.1018 v -7.5 c 0,-0.4142 0.3358,-0.7500002 0.75,-0.7500002 z"
         fill="#212121"
         id="path12"
         sodipodi:nodetypes="sccssccss" />
      <path
         d="m 6.5864617,9.7703167 c 0.3796999,0 0.6935,0.2822003 0.7431999,0.6482003 l 0.0068,0.1018 v 7.5 c 0,0.4142 -0.3358,0.75 -0.75,0.75 -0.3797003,0 -0.6935002,-0.2822 -0.7432002,-0.6482 l -0.0068,-0.1018 v -7.5 c 0,-0.4142 0.3357999,-0.7500003 0.7500003,-0.7500003 z"
         fill="#212121"
         id="path13"
         sodipodi:nodetypes="sccssccss" />
      <path
         d="m 2.849569,17.99853 c 4.475e-4,-0.379699 0.128259,-0.692762 0.2936028,-0.741508 l 0.045982,-0.0065 3.3870038,0.01956 c 0.1870524,0.0011 0.3383047,0.337754 0.3378171,0.751953 -4.474e-4,0.379699 -0.1282589,0.692762 -0.2936028,0.741507 l -0.045982,0.0065 -3.3870041,-0.01956 C 3.0003337,18.749382 2.8490815,18.412729 2.849569,17.99853 Z"
         fill="#212121"
         id="path14"
         sodipodi:nodetypes="sccssccss"
         style="stroke-width:0.672013" />
    </g>
  </g>
  <g
     id="g21"
     transform="translate(12.555318,-1.4135073)">
    <g
       id="g17">
      <path
         d="m 3.1710062,9.7502208 c 0.3797,0 0.6935,0.2822002 0.7432,0.6482002 l 0.0068,0.1018 v 7.5 c 0,0.4142 -0.3358,0.75 -0.75,0.75 -0.3797,0 -0.6935,-0.2822 -0.7432,-0.6482 l -0.0068,-0.1018 v -7.5 c 0,-0.4142 0.3358,-0.7500002 0.75,-0.7500002 z"
         fill="#212121"
         id="path15"
         sodipodi:nodetypes="sccssccss" />
      <path
         d="m 6.5864617,9.7703167 c 0.3796999,0 0.6935,0.2822003 0.7431999,0.6482003 l 0.0068,0.1018 v 7.5 c 0,0.4142 -0.3358,0.75 -0.75,0.75 -0.3797003,0 -0.6935002,-0.2822 -0.7432002,-0.6482 l -0.0068,-0.1018 v -7.5 c 0,-0.4142 0.3357999,-0.7500003 0.7500003,-0.7500003 z"
         fill="#212121"
         id="path16"
         sodipodi:nodetypes="sccssccss" />
      <path
         d="m 2.849569,17.99853 c 4.475e-4,-0.379699 0.128259,-0.692762 0.2936028,-0.741508 l 0.045982,-0.0065 3.3870038,0.01956 c 0.1870524,0.0011 0.3383047,0.337754 0.3378171,0.751953 -4.474e-4,0.379699 -0.1282589,0.692762 -0.2936028,0.741507 l -0.045982,0.0065 -3.3870041,-0.01956 C 3.0003337,18.749382 2.8490815,18.412729 2.849569,17.99853 Z"
         fill="#212121"
         id="path17"
         sodipodi:nodetypes="sccssccss"
         style="stroke-width:0.672013" />
    </g>
    <g
       id="g20"
       transform="rotate(179.74727,6.6023006,14.266832)">
      <path
         d="m 3.1710062,9.7502208 c 0.3797,0 0.6935,0.2822002 0.7432,0.6482002 l 0.0068,0.1018 v 7.5 c 0,0.4142 -0.3358,0.75 -0.75,0.75 -0.3797,0 -0.6935,-0.2822 -0.7432,-0.6482 l -0.0068,-0.1018 v -7.5 c 0,-0.4142 0.3358,-0.7500002 0.75,-0.7500002 z"
         fill="#212121"
         id="path18"
         sodipodi:nodetypes="sccssccss" />
      <path
         d="m 6.5864617,9.7703167 c 0.3796999,0 0.6935,0.2822003 0.7431999,0.6482003 l 0.0068,0.1018 v 7.5 c 0,0.4142 -0.3358,0.75 -0.75,0.75 -0.3797003,0 -0.6935002,-0.2822 -0.7432002,-0.6482 l -0.0068,-0.1018 v -7.5 c 0,-0.4142 0.3357999,-0.7500003 0.7500003,-0.7500003 z"
         fill="#212121"
         id="path19"
         sodipodi:nodetypes="sccssccss" />
      <path
         d="m 2.849569,17.99853 c 4.475e-4,-0.379699 0.128259,-0.692762 0.2936028,-0.741508 l 0.045982,-0.0065 3.3870038,0.01956 c 0.1870524,0.0011 0.3383047,0.337754 0.3378171,0.751953 -4.474e-4,0.379699 -0.1282589,0.692762 -0.2936028,0.741507 l -0.045982,0.0065 -3.3870041,-0.01956 C 3.0003337,18.749382 2.8490815,18.412729 2.849569,17.99853 Z"
         fill="#212121"
         id="path20"
         sodipodi:nodetypes="sccssccss"
         style="stroke-width:0.672013" />
    </g>
  </g>
  <path
     d="m 0.20894335,9.0063425 c 2.0235e-4,-0.379699 0.0579962,-0.692762 0.13276143,-0.741508 l 0.0207922,-0.0065 1.53153652,0.01956 c 0.084581,0.0011 0.1529748,0.337754 0.1527544,0.751953 -2.023e-4,0.379699 -0.057997,0.692762 -0.1327615,0.741507 l -0.020792,0.0065 -1.53153676,-0.01956 c -0.0845811,-0.0011 -0.15297438,-0.337753 -0.15275429,-0.751952 z"
     fill="#212121"
     id="path23"
     sodipodi:nodetypes="sccssccss"
     style="stroke-width:0.45189" />
  <path
     d="m 22.40024,16.595256 c 1.7e-4,-0.379699 0.04863,-0.692762 0.111316,-0.741508 l 0.01743,-0.0065 1.28414,0.01956 c 0.07092,0.0011 0.128265,0.337754 0.12808,0.751953 -1.7e-4,0.379699 -0.04863,0.692762 -0.111316,0.741507 l -0.01743,0.0065 -1.284141,-0.01956 c -0.07092,-0.0011 -0.128264,-0.337753 -0.128079,-0.751952 z"
     fill="#212121"
     id="path27"
     sodipodi:nodetypes="sccssccss"
     style="stroke-width:0.413786" />
</svg>
