<?xml version="1.0" encoding="UTF-8" standalone="no"?>
<svg
   width="24"
   height="24"
   viewBox="0 0 24 24"
   fill="none"
   version="1.1"
   id="svg1"
   sodipodi:docname="ic_fluent_vehicleaddress_download_24_dark.svg"
   inkscape:version="1.4.2 (f4327f4, 2025-05-13)"
   xmlns:inkscape="http://www.inkscape.org/namespaces/inkscape"
   xmlns:sodipodi="http://sodipodi.sourceforge.net/DTD/sodipodi-0.dtd"
   xmlns="http://www.w3.org/2000/svg"
   xmlns:svg="http://www.w3.org/2000/svg">
  <defs
     id="defs1" />
  <sodipodi:namedview
     id="namedview1"
     pagecolor="#ffffff"
     bordercolor="#000000"
     borderopacity="0.25"
     inkscape:showpageshadow="2"
     inkscape:pageopacity="0.0"
     inkscape:pagecheckerboard="0"
     inkscape:deskcolor="#d1d1d1"
     inkscape:zoom="46.75"
     inkscape:cx="12"
     inkscape:cy="12"
     inkscape:window-width="2560"
     inkscape:window-height="1351"
     inkscape:window-x="-9"
     inkscape:window-y="-9"
     inkscape:window-maximized="1"
     inkscape:current-layer="svg1" />
  <path
     d="M 4.75,4 C 3.23122,4 2,5.23122 2,6.75 v 4.5072 C 2.44631,10.8886 2.95177,10.589 3.5,10.3749 V 6.75 C 3.5,6.05964 4.05964,5.5 4.75,5.5 h 14.5 c 0.6904,0 1.25,0.55964 1.25,1.25 v 10.5 c 0,0.6904 -0.5596,1.25 -1.25,1.25 h -8.2751 l 1.5,1.5 H 19.25 C 20.7688,20 22,18.7688 22,17.25 V 6.75 C 22,5.23122 20.7688,4 19.25,4 Z m 3.91308,7 c 0.57246,0.4031 1.06454,0.9127 1.44742,1.5 H 17.25 C 17.6642,12.5 18,12.1642 18,11.75 18,11.3358 17.6642,11 17.25,11 Z M 15.25,15.5 H 11 C 11,14.98 10.9278,14.4768 10.793,14 h 4.457 c 0.4142,0 0.75,0.3358 0.75,0.75 0,0.4142 -0.3358,0.75 -0.75,0.75 z M 6.75,8 C 6.33579,8 6,8.33579 6,8.75 6,9.16421 6.33579,9.5 6.75,9.5 h 6.5 C 13.6642,9.5 14,9.16421 14,8.75 14,8.33579 13.6642,8 13.25,8 Z"
     fill="#212121"
     id="path1"
     sodipodi:nodetypes="ssccssssssccsssssccssscsccssssssssss"
     style="fill:#ffffff;fill-opacity:1" />
  <path
     d="M 9.765253,18.172154 C 9.9324766,18.002335 9.9256856,17.733479 9.750152,17.571701 9.5746171,17.409924 9.296713,17.416492 9.1294895,17.586318 l -3.4852216,3.539797 v -8.343139 c -4.3e-6,-0.234546 -0.1964931,-0.424688 -0.4389865,-0.424688 -0.2424352,0 -0.438983,0.190142 -0.438983,0.424688 V 21.12634 L 1.2809087,17.58631 C 1.1136917,17.416492 0.83582803,17.409924 0.66027559,17.5717 c -0.17554596,0.161778 -0.18230631,0.430634 -0.01509,0.600453 L 4.7813992,22.37311 c 0.094235,0.09575 0.2144569,0.152321 0.33948,0.169818 0.02733,0.0052 0.055543,0.0079 0.084402,0.0079 0.029089,0 0.057539,-0.0028 0.085044,-0.008 0.1247303,-0.01761 0.2446599,-0.07418 0.3387184,-0.169705 z"
     fill="#212121"
     id="path1-5"
     style="stroke-width:1.476;stroke-dasharray:none;fill:#ffffff;fill-opacity:1" />
</svg>
