<?xml version="1.0" encoding="UTF-8" standalone="no"?>
<svg
   width="24"
   height="24"
   viewBox="0 0 24 24"
   fill="none"
   version="1.1"
   id="svg1"
   sodipodi:docname="ic_fluent_developer_board_edit_name_24_dark.svg"
   inkscape:version="1.3.2 (091e20e, 2023-11-25, custom)"
   xml:space="preserve"
   xmlns:inkscape="http://www.inkscape.org/namespaces/inkscape"
   xmlns:sodipodi="http://sodipodi.sourceforge.net/DTD/sodipodi-0.dtd"
   xmlns="http://www.w3.org/2000/svg"
   xmlns:svg="http://www.w3.org/2000/svg"><defs
     id="defs1" /><sodipodi:namedview
     id="namedview1"
     pagecolor="#ffffff"
     bordercolor="#000000"
     borderopacity="0.25"
     inkscape:showpageshadow="2"
     inkscape:pageopacity="0.0"
     inkscape:pagecheckerboard="0"
     inkscape:deskcolor="#d1d1d1"
     inkscape:zoom="23.458334"
     inkscape:cx="6.9058613"
     inkscape:cy="22.166962"
     inkscape:window-width="2560"
     inkscape:window-height="1351"
     inkscape:window-x="-9"
     inkscape:window-y="-9"
     inkscape:window-maximized="1"
     inkscape:current-layer="svg1" /><path
     d="m 12.316076,0.72113679 c 0.345709,0 0.631417,0.2424585 0.676668,0.55704031 l 0.0062,0.087454 4.56e-4,1.9980338 c 1.337676,0.2564655 2.391283,1.2510054 2.662697,2.5135773 l 2.116865,-1.547e-4 c 0.377121,0 0.68286,0.2885528 0.68286,0.6444938 0,0.3262857 -0.256938,0.5959333 -0.590173,0.6386074 l -0.09269,0.00589 H 15.73038 v 1.5038188 h 2.048579 c 0.345709,0 0.631418,0.2425016 0.676668,0.5570148 l 0.0062,0.08748 c 0,0.326286 -0.256938,0.595942 -0.590173,0.63865 l -0.09269,0.0058 h -2.048579 v 1.5038197 h 2.048579 c 0.345709,0 0.631418,0.242501 0.676668,0.557014 l 0.0062,0.08748 c 0,0.326286 -0.256938,0.595942 -0.590173,0.638651 l -0.09269,0.0058 -2.117047,6.88e-4 c -0.271778,1.262176 -1.325112,2.256329 -2.662515,2.512752 l -4.56e-4,1.998017 c 0,0.355932 -0.305739,0.644493 -0.682859,0.644493 -0.345709,0 -0.631418,-0.242501 -0.676669,-0.557014 l -0.0062,-0.08748 v -1.934259 h -1.594251 l 9.11e-4,1.934341 c 0,0.326285 -0.2569379,0.595942 -0.5901729,0.63865 l -0.092687,0.0058 c -0.3457091,0 -0.6314176,-0.242501 -0.6766684,-0.557014 l -0.00619,-0.08748 -9.105e-4,-1.934341 H 7.080817 v 1.934341 c 0,0.326285 -0.2568918,0.595942 -0.5902002,0.63865 l -0.092659,0.0058 c -0.3457091,0 -0.6314085,-0.242501 -0.6766229,-0.557014 l -0.00624,-0.08748 4.188e-4,-1.997845 C 4.3774939,15.009135 3.3235318,14.014466 3.051954,12.751688 H 0.93507996 c -0.3771298,0 -0.6828597,-0.288561 -0.6828597,-0.644494 0,-0.326285 0.2568918,-0.595942 0.5902002,-0.63865 l 0.092659,-0.0058 2.04857894,-8.6e-4 V 9.9580643 l -2.04857894,8.6e-4 c -0.3457091,0 -0.6314085,-0.242502 -0.67662292,-0.557015 l -0.006237,-0.08748 c 0,-0.3262858 0.25689182,-0.595942 0.59020022,-0.6386505 l 0.092659,-0.00584 2.04857894,-8.593e-4 V 7.1652153 l -2.04857894,8.593e-4 c -0.3457091,0 -0.63140852,-0.2424586 -0.67662294,-0.5570403 l -0.006237,-0.087453 c 0,-0.3262857 0.25689184,-0.5959333 0.59020024,-0.6386074 l 0.092659,-0.00589 L 3.0521342,5.876259 C 3.3240053,4.6138792 4.3777943,3.6196144 5.7155164,3.3634925 L 5.7150976,1.3656306 c 0,-0.3559411 0.3057299,-0.64449381 0.6828597,-0.64449381 0.3457091,0 0.6314085,0.2424585 0.6766229,0.55704031 l 0.00624,0.087454 v 1.932622 h 1.5924287 l 9.105e-4,-1.932622 c 0,-0.3262858 0.2569374,-0.59593341 0.5901729,-0.63860741 l 0.092687,-0.00589 c 0.3457088,0 0.6314178,0.2424585 0.6766677,0.55704031 l 0.0062,0.087454 -9.11e-4,1.932622 h 1.594251 V 1.365628 c 0,-0.2966218 0.212324,-0.54643621 0.50131,-0.62147251 l 0.08886,-0.017135 z m 0,3.86696271 H 6.3979573 c -1.1313983,0 -2.0485791,0.8656496 -2.0485791,1.9334813 v 5.5856132 c 0,1.067798 0.9171808,1.933482 2.0485791,1.933482 h 5.9181187 c 1.131362,0 2.048579,-0.865684 2.048579,-1.933482 V 6.5215808 c 0,-1.0678317 -0.917217,-1.9334813 -2.048579,-1.9334813 z m -2.9545987,2.152549 c 1.5085747,0 2.7314397,1.1542197 2.7314397,2.5779498 0,1.4238157 -1.222865,2.5779757 -2.7314397,2.5779757 -1.5084826,0 -2.7314115,-1.15416 -2.7314115,-2.5779757 0,-1.4237301 1.2229289,-2.5779498 2.7314115,-2.5779498 z m 0,1.2889618 c -0.7542413,0 -1.3657194,0.5771227 -1.3657194,1.288988 0,0.7119497 0.6114781,1.2889867 1.3657194,1.2889867 0.7543337,0 1.3657207,-0.577037 1.3657207,-1.2889867 0,-0.7118653 -0.611387,-1.288988 -1.3657207,-1.288988 z"
     fill="#212121"
     id="path1"
     style="stroke-width:0.884533;fill:#ffffff;fill-opacity:1" /><g
     style="fill:none"
     id="g1"
     transform="translate(-3.4955465,-2.214914)"><path
       d="m 23.355694,15.245007 -5.9025,5.9024 c -0.3441,0.3441 -0.5882,0.7753 -0.7063,1.2475 l -0.4577,1.8307 c -0.199,0.7961 0.5222,1.5173 1.3183,1.3182 l 1.8307,-0.4577 c 0.4721,-0.118 0.9033,-0.3621 1.2475,-0.7063 l 5.9024,-5.9024 c 0.8926,-0.8926 0.8926,-2.3398 0,-3.2324 -0.8926,-0.8927 -2.3398,-0.8927 -3.2324,0 z"
       fill="#212121"
       id="path1-2"
       sodipodi:nodetypes="ccccccsscc"
       style="fill:#ffffff;fill-opacity:1" /></g></svg>
