<?xml version="1.0" encoding="UTF-8" standalone="no"?>
<svg
   width="24"
   height="24"
   viewBox="0 0 24 24"
   fill="none"
   version="1.1"
   id="svg1"
   sodipodi:docname="ic_fluent_arrow_left_24_dark.svg"
   inkscape:version="1.3.2 (091e20e, 2023-11-25, custom)"
   xmlns:inkscape="http://www.inkscape.org/namespaces/inkscape"
   xmlns:sodipodi="http://sodipodi.sourceforge.net/DTD/sodipodi-0.dtd"
   xmlns="http://www.w3.org/2000/svg"
   xmlns:svg="http://www.w3.org/2000/svg">
  <defs
     id="defs1" />
  <sodipodi:namedview
     id="namedview1"
     pagecolor="#ffffff"
     bordercolor="#000000"
     borderopacity="0.25"
     inkscape:showpageshadow="2"
     inkscape:pageopacity="0.0"
     inkscape:pagecheckerboard="0"
     inkscape:deskcolor="#d1d1d1"
     inkscape:zoom="47.375"
     inkscape:cx="11.989446"
     inkscape:cy="12"
     inkscape:window-width="2560"
     inkscape:window-height="1351"
     inkscape:window-x="-9"
     inkscape:window-y="-9"
     inkscape:window-maximized="1"
     inkscape:current-layer="svg1" />
  <path
     d="M10.7327 19.7905C11.0326 20.0762 11.5074 20.0646 11.7931 19.7647C12.0788 19.4648 12.0672 18.99 11.7673 18.7043L5.51587 12.7497L20.25 12.7497C20.6642 12.7497 21 12.4139 21 11.9997C21 11.5855 20.6642 11.2497 20.25 11.2497L5.51577 11.2497L11.7673 5.29502C12.0672 5.00933 12.0787 4.5346 11.7931 4.23467C11.5074 3.93475 11.0326 3.9232 10.7327 4.20889L3.31379 11.2756C3.14486 11.4365 3.04491 11.6417 3.01393 11.8551C3.00479 11.9019 3 11.9503 3 11.9997C3 12.0493 3.00481 12.0977 3.01398 12.1446C3.04502 12.3579 3.14496 12.563 3.31379 12.7238L10.7327 19.7905Z"
     fill="#212121"
     id="path1"
     style="fill:#ffffff;fill-opacity:1" />
</svg>
