<?xml version="1.0" encoding="UTF-8" standalone="no"?>
<svg
   width="24"
   height="24"
   viewBox="0 0 24 24"
   fill="none"
   version="1.1"
   id="svg1"
   sodipodi:docname="ic_fluent_cellular_warning_24_dark.svg"
   inkscape:version="1.4.2 (f4327f4, 2025-05-13)"
   xmlns:inkscape="http://www.inkscape.org/namespaces/inkscape"
   xmlns:sodipodi="http://sodipodi.sourceforge.net/DTD/sodipodi-0.dtd"
   xmlns="http://www.w3.org/2000/svg"
   xmlns:svg="http://www.w3.org/2000/svg">
  <defs
     id="defs1" />
  <sodipodi:namedview
     id="namedview1"
     pagecolor="#ffffff"
     bordercolor="#000000"
     borderopacity="0.25"
     inkscape:showpageshadow="2"
     inkscape:pageopacity="0.0"
     inkscape:pagecheckerboard="0"
     inkscape:deskcolor="#d1d1d1"
     inkscape:zoom="23.375"
     inkscape:cx="13.604278"
     inkscape:cy="10.096257"
     inkscape:window-width="2560"
     inkscape:window-height="1351"
     inkscape:window-x="-9"
     inkscape:window-y="-9"
     inkscape:window-maximized="1"
     inkscape:current-layer="svg1" />
  <path
     d="m 3.75,18.0024 c 0.3797,0 0.69349,0.2823 0.74315,0.6484 L 4.5,18.7526 v 1.5004 c 0,0.4143 -0.33579,0.7501 -0.75,0.7501 -0.3797,0 -0.69349,-0.2822 -0.74315,-0.6484 L 3,20.253 v -1.5004 c 0,-0.4143 0.33579,-0.7502 0.75,-0.7502 z m 4.74315,-2.356 C 8.5091532,17.179576 8.5,18.714274 8.5,20.2479 c 0,0.4144 -0.33579,0.7502 -0.75,0.7502 -0.3797,0 -0.69349,-0.2822 -0.74315,-0.6484 L 7,20.2479 v -4.4997 c 0,-0.921844 1.3699889,-1.010008 1.49315,-0.1018 z m 7.66395,-2.8187 -3.9969,8.0002 C 11.6615,21.826 12.3874,23 13.5031,23 h 7.9938 c 1.1157,0 1.8416,-1.174 1.3429,-2.1721 l -3.9969,-8.0002 c -0.553,-1.107 -2.1327,-1.107 -2.6858,0 z m 1.8433,2.6662 v 3.0024 c 0,0.2764 -0.224,0.5004 -0.5004,0.5004 -0.2763,0 -0.5004,-0.224 -0.5004,-0.5004 v -3.0024 c 0,-0.2763 0.2241,-0.5004 0.5004,-0.5004 0.2764,0 0.5004,0.2241 0.5004,0.5004 z M 17.5,20.9983 c -0.2763,0 -0.5004,-0.224 -0.5004,-0.5004 0,-0.2763 0.2241,-0.5004 0.5004,-0.5004 0.2764,0 0.5004,0.2241 0.5004,0.5004 0,0.2764 -0.224,0.5004 -0.5004,0.5004 z"
     fill="#212121"
     id="path1"
     sodipodi:nodetypes="sccssccsscssccscccsscccssssssssssss"
     style="fill:#ffffff;fill-opacity:1" />
</svg>
