<?xml version="1.0" encoding="UTF-8" standalone="no"?>
<svg
   width="64"
   height="64"
   viewBox="0 0 64 64"
   fill="none"
   version="1.1"
   id="svg1"
   sodipodi:docname="ic_fluent_locomotive_list_48_regular.svg"
   inkscape:version="1.4.2 (f4327f4, 2025-05-13)"
   inkscape:export-filename="ic_fluent_text_bullet_list_square_warning_32_regular.png"
   inkscape:export-xdpi="128"
   inkscape:export-ydpi="128"
   xmlns:inkscape="http://www.inkscape.org/namespaces/inkscape"
   xmlns:sodipodi="http://sodipodi.sourceforge.net/DTD/sodipodi-0.dtd"
   xmlns="http://www.w3.org/2000/svg"
   xmlns:svg="http://www.w3.org/2000/svg">
  <defs
     id="defs1" />
  <sodipodi:namedview
     id="namedview1"
     pagecolor="#ffffff"
     bordercolor="#000000"
     borderopacity="0.25"
     inkscape:showpageshadow="2"
     inkscape:pageopacity="0.0"
     inkscape:pagecheckerboard="0"
     inkscape:deskcolor="#d1d1d1"
     inkscape:zoom="11.313709"
     inkscape:cx="16.086679"
     inkscape:cy="29.87526"
     inkscape:window-width="2560"
     inkscape:window-height="1351"
     inkscape:window-x="-9"
     inkscape:window-y="-9"
     inkscape:window-maximized="1"
     inkscape:current-layer="svg1" />
  <path
     d="m 16.016863,19.368714 c 1.448087,0 2.62202,-1.17393 2.62202,-2.62202 0,-1.448087 -1.173933,-2.622018 -2.62202,-2.622018 -1.448089,0 -2.62202,1.173931 -2.62202,2.622018 0,1.44809 1.173931,2.62202 2.62202,2.62202 z m 9.177068,-4.588533 c -1.086041,0 -1.966514,0.880447 -1.966514,1.966513 0,1.086067 0.880473,1.966516 1.966514,1.966516 h 14.421106 c 1.086041,0 1.966515,-0.880449 1.966515,-1.966516 0,-1.086066 -0.880474,-1.966513 -1.966515,-1.966513 z m 2.61e-4,9.832572 c -1.086302,0 -1.966514,0.880474 -1.966514,1.966514 0,1.086041 0.880212,1.966516 1.966514,1.966516 h 13.301091 l 2.026079,-0.0097 c 1.7257,-1.15196 1.719976,-3.847886 -1.816428,-3.923326 z m 0,9.832574 h 7.100691 l -0.02175,3.89337 -7.078927,0.03966 c -1.086286,0.0061 -1.966517,-0.880474 -1.966517,-1.966514 0,-1.086041 0.880214,-1.966514 1.966517,-1.966514 z m -13.110359,11.799087 20.204779,0.01074 0.0024,3.917052 c -1.762001,0.0033 -1.179147,0.02412 -5.985017,0.0054 H 12.083833 C 7.377492,50.177543 3.5622704,46.362243 3.5622704,41.655978 V 11.502656 c 0,-4.706341 3.8152216,-8.5215625 8.5215626,-8.5215625 h 30.153224 c 4.706262,0 8.521562,3.8152212 8.521562,8.5215625 v 18.597993 c 0,0 -1.652005,-0.0042 -3.624556,-0.09358 L 46.825591,11.502655 C 46.78335,8.9688261 44.771238,6.9141218 42.237057,6.9141218 H 12.083833 c -2.5341816,0 -4.5885338,2.0543522 -4.5885338,4.5885332 v 30.153223 c 0,2.534182 2.0543522,4.588536 4.5885338,4.588536 z m 6.55505,-19.665147 c 0,1.448143 -1.173933,2.62202 -2.62202,2.62202 -1.448089,0 -2.62202,-1.173877 -2.62202,-2.62202 0,-1.448141 1.173931,-2.622019 2.62202,-2.622019 1.448087,0 2.62202,1.173878 2.62202,2.622019 z m -2.62202,12.454594 c 1.448087,0 2.62202,-1.173879 2.62202,-2.62202 0,-1.448141 -1.173933,-2.62202 -2.62202,-2.62202 -1.448089,0 -2.62202,1.173879 -2.62202,2.62202 0,1.448141 1.173931,2.62202 2.62202,2.62202 z"
     fill="#212121"
     id="path1"
     sodipodi:nodetypes="ssssssssssssssscccssccsssscccssssssccssssssssssssssss"
     style="stroke-width:2.62203" />
  <path
     d="m 54.995386,32.017816 c 3.262338,0 5.906896,2.644605 5.906896,5.906897 v 14.176548 c 0,2.7964 -1.942978,5.138839 -4.552721,5.75095 l 3.879334,1.845946 c 0.589115,0.280367 0.839251,0.985428 0.558715,1.574542 -0.257246,0.539969 -0.870913,0.795151 -1.425213,0.617786 l -0.149324,-0.05926 -8.029757,-3.823099 h -5.766704 l -8.02774,3.823099 c -0.589083,0.280535 -1.294019,0.03041 -1.574528,-0.558556 -0.28051,-0.58911 -0.03038,-1.29416 0.558699,-1.574541 L 40.251624,57.85202 C 37.642326,57.239615 35.699576,54.897331 35.699576,52.101245 V 37.924693 c 0,-3.26229 2.644602,-5.90689 5.906891,-5.90689 z m 3.543981,17.326891 H 38.062065 l 2.66e-4,2.756554 c 0,1.957311 1.586766,3.544138 3.544136,3.544138 h 13.388919 c 1.957467,0 3.544137,-1.586827 3.544137,-3.544138 z m -16.539105,1.575176 c 0.869952,0 1.575171,0.7052 1.575171,1.575172 0,0.869962 -0.705219,1.575172 -1.575171,1.575172 -0.869937,0 -1.575171,-0.70521 -1.575171,-1.575172 0,-0.869972 0.705234,-1.575172 1.575171,-1.575172 z m 12.60133,0 c 0.869965,0 1.575174,0.7052 1.575174,1.575172 0,0.869962 -0.705209,1.575172 -1.575174,1.575172 -0.869967,0 -1.575169,-0.70521 -1.575169,-1.575172 0,-0.869972 0.705202,-1.575172 1.575169,-1.575172 z M 54.995386,34.380574 H 41.606467 c -1.95737,0 -3.544136,1.586763 -3.544136,3.544139 l -2.66e-4,9.057237 h 20.477302 l 1.56e-4,-9.057237 c 0,-1.957376 -1.58667,-3.544139 -3.544137,-3.544139 z m -4.725516,2.362758 c 0.652436,0 1.181377,0.528927 1.181377,1.181381 0,0.652452 -0.528941,1.181379 -1.181377,1.181379 h -3.937935 c -0.652433,0 -1.181328,-0.528927 -1.181328,-1.181379 0,-0.652454 0.528895,-1.181381 1.181328,-1.181381 z"
     fill="#212121"
     id="path1-7"
     style="stroke-width:1.57516" />
</svg>
