<?xml version="1.0" encoding="UTF-8" standalone="no"?>
<svg
   width="24"
   height="24"
   viewBox="0 0 24 24"
   fill="none"
   version="1.1"
   id="svg1"
   sodipodi:docname="ic_fluent_arrow_routing_24_dark.svg"
   inkscape:version="1.3.2 (091e20e, 2023-11-25, custom)"
   xmlns:inkscape="http://www.inkscape.org/namespaces/inkscape"
   xmlns:sodipodi="http://sodipodi.sourceforge.net/DTD/sodipodi-0.dtd"
   xmlns="http://www.w3.org/2000/svg"
   xmlns:svg="http://www.w3.org/2000/svg">
  <defs
     id="defs1" />
  <sodipodi:namedview
     id="namedview1"
     pagecolor="#ffffff"
     bordercolor="#000000"
     borderopacity="0.25"
     inkscape:showpageshadow="2"
     inkscape:pageopacity="0.0"
     inkscape:pagecheckerboard="0"
     inkscape:deskcolor="#d1d1d1"
     inkscape:zoom="46.916667"
     inkscape:cx="12"
     inkscape:cy="12"
     inkscape:window-width="2560"
     inkscape:window-height="1351"
     inkscape:window-x="-9"
     inkscape:window-y="-9"
     inkscape:window-maximized="1"
     inkscape:current-layer="svg1" />
  <path
     d="M17.5303 3.21967C17.2374 2.92678 16.7626 2.92678 16.4697 3.21967C16.1768 3.51256 16.1768 3.98744 16.4697 4.28033L19.4393 7.25H14.5C12.7051 7.25 11.25 8.70507 11.25 10.5V13.5C11.25 14.3218 10.6836 15.0113 9.91985 15.1993C9.54896 13.3739 7.93492 12 6 12C3.79086 12 2 13.7909 2 16C2 18.2091 3.79086 20 6 20C7.96294 20 9.59563 18.5861 9.93517 16.7211C11.5243 16.5085 12.75 15.1474 12.75 13.5V10.5C12.75 9.5335 13.5335 8.75 14.5 8.75H19.4393L16.4697 11.7197C16.1768 12.0126 16.1768 12.4874 16.4697 12.7803C16.7626 13.0732 17.2374 13.0732 17.5303 12.7803L21.7803 8.53033C22.0732 8.23744 22.0732 7.76256 21.7803 7.46967L17.5303 3.21967ZM3.5 16C3.5 14.6193 4.61929 13.5 6 13.5C7.38071 13.5 8.5 14.6193 8.5 16C8.5 17.3807 7.38071 18.5 6 18.5C4.61929 18.5 3.5 17.3807 3.5 16Z"
     fill="#212121"
     id="path1"
     style="fill:#ffffff;fill-opacity:1" />
</svg>
