<?xml version="1.0" encoding="UTF-8" standalone="no"?>
<svg
   width="24"
   height="24"
   viewBox="0 0 24 24"
   fill="none"
   version="1.1"
   id="svg1"
   sodipodi:docname="ic_fluent_speaker_commandstation_add_24_dark.svg"
   inkscape:version="1.4.2 (f4327f4, 2025-05-13)"
   xmlns:inkscape="http://www.inkscape.org/namespaces/inkscape"
   xmlns:sodipodi="http://sodipodi.sourceforge.net/DTD/sodipodi-0.dtd"
   xmlns="http://www.w3.org/2000/svg"
   xmlns:svg="http://www.w3.org/2000/svg">
  <defs
     id="defs1" />
  <sodipodi:namedview
     id="namedview1"
     pagecolor="#ffffff"
     bordercolor="#000000"
     borderopacity="0.25"
     inkscape:showpageshadow="2"
     inkscape:pageopacity="0.0"
     inkscape:pagecheckerboard="0"
     inkscape:deskcolor="#d1d1d1"
     inkscape:zoom="33.175093"
     inkscape:cx="12.132596"
     inkscape:cy="15.900483"
     inkscape:window-width="2560"
     inkscape:window-height="1351"
     inkscape:window-x="-9"
     inkscape:window-y="-9"
     inkscape:window-maximized="1"
     inkscape:current-layer="svg1" />
  <path
     d="m 4.1796875,9.0566406 c -1.3839968,0 -2.4980469,1.1523574 -2.4980469,2.5839844 v 1.742188 c 0,0.49169 0.1326821,0.951332 0.3613282,1.341796 a 4.6318755,4.6144848 0 0 1 4.3964843,-3.064453 4.6318755,4.6144848 0 0 1 4.5878909,4.308594 h 9.816406 c 1.383997,0 2.498047,-1.15431 2.498047,-2.585937 v -1.742188 c 0,-1.431627 -1.11405,-2.5839844 -2.498047,-2.5839844 z"
     style="stroke:#ffffff;stroke-width:1.426;stroke-linecap:round;stroke-linejoin:round;stroke-miterlimit:14.4;paint-order:fill markers stroke;stroke-opacity:1"
     id="path4" />
  <text
     xml:space="preserve"
     style="font-weight:bold;font-size:4.83425px;font-family:'Segoe UI';-inkscape-font-specification:'Segoe UI Bold';fill:none;fill-opacity:1;stroke:#212121;stroke-width:0.362568;stroke-linecap:round;stroke-linejoin:round;stroke-miterlimit:14.4;stroke-dasharray:none;stroke-opacity:1;paint-order:fill markers stroke"
     x="7.6582174"
     y="14.95513"
     id="text2"
     transform="scale(0.97331965,1.0274117)"><tspan
       sodipodi:role="line"
       id="tspan2"
       x="7.6582174"
       y="14.95513"
       style="font-style:normal;font-variant:normal;font-weight:normal;font-stretch:normal;font-size:4.83425px;font-family:'Arial Rounded MT Bold';-inkscape-font-specification:'Arial Rounded MT Bold, ';stroke-width:0.362568;stroke-dasharray:none" /></text>
  <rect
     style="fill:none;fill-opacity:1;stroke:#ffffff;stroke-width:0.813423;stroke-linecap:round;stroke-linejoin:round;stroke-miterlimit:14.4;stroke-dasharray:none;stroke-opacity:1;paint-order:fill markers stroke"
     id="rect2"
     width="2.2441089"
     height="1.8950253"
     x="13.595312"
     y="11.564919"
     rx="0.38262486"
     ry="0.44882143" />
  <rect
     style="fill:none;fill-opacity:1;stroke:#ffffff;stroke-width:0.813423;stroke-linecap:round;stroke-linejoin:round;stroke-miterlimit:14.4;stroke-dasharray:none;stroke-opacity:1;paint-order:fill markers stroke"
     id="rect2-0"
     width="2.2441089"
     height="1.8950253"
     x="17.143156"
     y="11.564919"
     rx="0.38262486"
     ry="0.44882143" />
  <path
     d="m 6.3131577,11.150714 c 3.0375699,0 5.4999993,2.4624 5.4999993,5.5 0,3.0376 -2.4624294,5.5 -5.4999993,5.5 -3.03757,0 -5.49999999,-2.4624 -5.49999999,-5.5 0,-3.0376 2.46242999,-5.5 5.49999999,-5.5 z m 0.50111,8.5035 -4.6e-4,-2.5035 h 2.4959399 c 0.27587,0 0.4995,-0.2238 0.4995,-0.5 0,-0.2761 -0.22363,-0.5 -0.4995,-0.5 H 6.8136177 l -4.6e-4,-2.5007 c 0,-0.2762 -0.22386,-0.5 -0.5,-0.5 -0.27614,0 -0.5,0.2238 -0.5,0.5 l 4.6e-4,2.5007 h -2.50486 c -0.27587,0 -0.49951,0.2239 -0.49951,0.5 0,0.2762 0.22364,0.5 0.49951,0.5 h 2.50505 l 4.6e-4,2.5035 c 0,0.2762 0.22386,0.5 0.5,0.5 0.27614,0 0.5,-0.2238 0.5,-0.5 z"
     fill="#212121"
     id="path1"
     sodipodi:nodetypes="sssssccsssccsccsssccsc"
     style="fill:#ffffff;fill-opacity:1" />
</svg>
