<?xml version="1.0" encoding="UTF-8" standalone="no"?>
<svg
   width="24"
   height="24"
   viewBox="0 0 24 24"
   fill="none"
   version="1.1"
   id="svg1"
   sodipodi:docname="ic_fluent_more_horizontal_24_dark.svg"
   inkscape:version="1.3.2 (091e20e, 2023-11-25, custom)"
   xmlns:inkscape="http://www.inkscape.org/namespaces/inkscape"
   xmlns:sodipodi="http://sodipodi.sourceforge.net/DTD/sodipodi-0.dtd"
   xmlns="http://www.w3.org/2000/svg"
   xmlns:svg="http://www.w3.org/2000/svg">
  <defs
     id="defs1" />
  <sodipodi:namedview
     id="namedview1"
     pagecolor="#ffffff"
     bordercolor="#000000"
     borderopacity="0.25"
     inkscape:showpageshadow="2"
     inkscape:pageopacity="0.0"
     inkscape:pagecheckerboard="0"
     inkscape:deskcolor="#d1d1d1"
     inkscape:zoom="46.916667"
     inkscape:cx="12"
     inkscape:cy="12"
     inkscape:window-width="2560"
     inkscape:window-height="1351"
     inkscape:window-x="-9"
     inkscape:window-y="-9"
     inkscape:window-maximized="1"
     inkscape:current-layer="svg1" />
  <path
     d="M7.75 12C7.75 12.9665 6.9665 13.75 6 13.75C5.0335 13.75 4.25 12.9665 4.25 12C4.25 11.0335 5.0335 10.25 6 10.25C6.9665 10.25 7.75 11.0335 7.75 12ZM13.75 12C13.75 12.9665 12.9665 13.75 12 13.75C11.0335 13.75 10.25 12.9665 10.25 12C10.25 11.0335 11.0335 10.25 12 10.25C12.9665 10.25 13.75 11.0335 13.75 12ZM18 13.75C18.9665 13.75 19.75 12.9665 19.75 12C19.75 11.0335 18.9665 10.25 18 10.25C17.0335 10.25 16.25 11.0335 16.25 12C16.25 12.9665 17.0335 13.75 18 13.75Z"
     fill="#212121"
     id="path1"
     style="fill:#ffffff;fill-opacity:1" />
</svg>
