<?xml version="1.0" encoding="UTF-8" standalone="no"?>
<svg
   width="24"
   height="24"
   viewBox="0 0 24 24"
   fill="none"
   version="1.1"
   id="svg1"
   sodipodi:docname="ic_fluent_note_edit_24_dark.svg"
   inkscape:version="1.4.2 (f4327f4, 2025-05-13)"
   xmlns:inkscape="http://www.inkscape.org/namespaces/inkscape"
   xmlns:sodipodi="http://sodipodi.sourceforge.net/DTD/sodipodi-0.dtd"
   xmlns="http://www.w3.org/2000/svg"
   xmlns:svg="http://www.w3.org/2000/svg">
  <defs
     id="defs1" />
  <sodipodi:namedview
     id="namedview1"
     pagecolor="#ffffff"
     bordercolor="#000000"
     borderopacity="0.25"
     inkscape:showpageshadow="2"
     inkscape:pageopacity="0.0"
     inkscape:pagecheckerboard="0"
     inkscape:deskcolor="#d1d1d1"
     inkscape:zoom="47.208333"
     inkscape:cx="12"
     inkscape:cy="12"
     inkscape:window-width="2560"
     inkscape:window-height="1351"
     inkscape:window-x="2391"
     inkscape:window-y="-9"
     inkscape:window-maximized="1"
     inkscape:current-layer="svg1" />
  <path
     d="M3 17.75C3 19.5449 4.45507 21 6.25 21H11.1651L11.5209 19.5768C11.5273 19.5511 11.534 19.5255 11.541 19.5H6.25C5.2835 19.5 4.5 18.7165 4.5 17.75V11H7.75L7.93442 10.9949C9.64354 10.8992 11 9.48303 11 7.75V4.5H17.75C18.7165 4.5 19.5 5.2835 19.5 6.25V11.2324C19.9789 11.0419 20.4935 10.9685 21 11.0122V6.25C21 4.45507 19.5449 3 17.75 3H10.8713C10.2746 3 9.70229 3.23705 9.28033 3.65901L3.65901 9.28033C3.23705 9.70229 3 10.2746 3 10.8713V17.75ZM7.75 9.5H5.561L9.5 5.561V7.75L9.4942 7.89353C9.42119 8.79289 8.66817 9.5 7.75 9.5ZM19.0999 12.6695L13.1974 18.5719C12.8533 18.916 12.6092 19.3472 12.4911 19.8194L12.0334 21.6501C11.8344 22.4462 12.5556 23.1674 13.3517 22.9683L15.1824 22.5106C15.6545 22.3926 16.0857 22.1485 16.4299 21.8043L22.3323 15.9019C23.2249 15.0093 23.2249 13.5621 22.3323 12.6695C21.4397 11.7768 19.9925 11.7768 19.0999 12.6695Z"
     fill="#212121"
     id="path1"
     style="fill:#ffffff;fill-opacity:1" />
</svg>
