<?xml version="1.0" encoding="UTF-8" standalone="no"?>
<svg
   width="24"
   height="24"
   viewBox="0 0 24 24"
   fill="none"
   version="1.1"
   id="svg1"
   sodipodi:docname="ic_fluent_deceleration_24_dark.svg"
   inkscape:version="1.4.2 (f4327f4, 2025-05-13)"
   xmlns:inkscape="http://www.inkscape.org/namespaces/inkscape"
   xmlns:sodipodi="http://sodipodi.sourceforge.net/DTD/sodipodi-0.dtd"
   xmlns="http://www.w3.org/2000/svg"
   xmlns:svg="http://www.w3.org/2000/svg">
  <defs
     id="defs1" />
  <sodipodi:namedview
     id="namedview1"
     pagecolor="#ffffff"
     bordercolor="#000000"
     borderopacity="0.25"
     inkscape:showpageshadow="2"
     inkscape:pageopacity="0.0"
     inkscape:pagecheckerboard="0"
     inkscape:deskcolor="#d1d1d1"
     inkscape:zoom="23.604166"
     inkscape:cx="15.569286"
     inkscape:cy="7.096205"
     inkscape:window-width="2560"
     inkscape:window-height="1351"
     inkscape:window-x="2391"
     inkscape:window-y="-9"
     inkscape:window-maximized="1"
     inkscape:current-layer="svg1" />
  <path
     d="m 12.501765,3.5000005 c 4.6944,0 8.5,3.8055799 8.5,8.4999995 0,4.6944 -3.8056,8.5 -8.5,8.5 -1.790704,0 -3.0027576,-0.373959 -4.4777176,-1.289602 -1.54024,-1.15004 -0.57768,-0.358282 -2.22708,-1.799269 -0.3914,-0.4606 -0.509883,-0.873529 -0.797004,-1.410929 -0.591518,-1.4895 0.07478,0.08642 -0.6243,-1.4991 -0.24309,-0.7908 -0.37393,-1.6306 -0.37393,-2.5011 0,-2.0974997 0.759741,-4.0175895 2.019061,-5.5000295 1.583747,-1.7005508 2.2718751,-1.949333 2.2718751,-1.949333 1.669869,-0.9160332 2.4179915,-1.050637 4.2090955,-1.050637 z m 0,1.5 c -3.8660205,0 -7.0000306,3.13401 -7.0000306,6.9999995 0,3.866 3.1340101,7 7.0000306,7 3.866,0 7,-3.134 7,-7 0,-3.8659895 -3.134,-6.9999995 -7,-6.9999995 z m 0.0031,1.50169 c 3.0384,0 5.5015,2.4631 5.5015,5.5015095 0,3.0384 -2.4631,5.5015 -5.5015,5.5015 -3.0383105,0 -5.5014405,-2.4631 -5.5014405,-5.5015 0,-3.0384095 2.46313,-5.5015095 5.5014405,-5.5015095 z m 1.1513,7.7144095 c -0.3453,0.1802 -0.738,0.2821 -1.1544,0.2821 -0.4121,0 -0.8009,-0.0998 -1.1435,-0.2764 l -1.095909,1.0959 c 0.639707,0.4336 1.411509,0.687 2.242509,0.687 0.8337,0 1.6078,-0.255 2.2486,-0.6911 z M 8.5034245,12.0032 c 0,0.8362 0.2565099,1.6125 0.69513,2.2545 l 1.0929025,-1.0912 c -0.184402,-0.3485 -0.288803,-0.7457 -0.288803,-1.1674 0,-0.4169 0.102101,-0.8099 0.282602,-1.1555 L 9.1944545,9.7546005 C 8.7583345,10.395501 8.5034245,11.1695 8.5034245,12.0032 Z m 7.3160405,-2.2425995 -1.095,1.0949995 c 0.1766,0.3427 0.2764,0.7314 0.2764,1.1435 0,0.4169 -0.1021,0.8099 -0.2826,1.1554 l 1.0971,1.0972 c 0.4361,-0.6408 0.691,-1.4149 0.691,-2.2485 0,-0.831 -0.2533,-1.602899 -0.6869,-2.2425995 z M 12.501765,11 c -0.5518,0 -0.9991,0.4473 -0.9991,0.9991 0,0.5518 0.4473,0.9991 0.9991,0.9991 0.5518,0 0.9991,-0.4473 0.9991,-0.9991 0,-0.5518 -0.4473,-0.9991 -0.9991,-0.9991 z m 0.0031,-2.9983095 c -0.834,0 -1.608502,0.2551799 -2.249509,0.69173 l 1.089909,1.0896799 c 0.3458,-0.1807999 0.7392,-0.2830999 1.1565,-0.2830999 0.4212,0 0.8182,0.1042 1.1664,0.2883 l 1.0913,-1.09146 c -0.642,-0.43864 -1.4183,-0.69515 -2.2546,-0.69515 z"
     fill="#212121"
     id="path1"
     sodipodi:nodetypes="sssccccsccssssssssssscsccsccsccsccsccsccscssssssccsccs"
     style="fill:#ffffff" />
  <rect
     style="fill:#ffffff;fill-opacity:1;stroke:#ffffff;stroke-width:2.19406;stroke-dasharray:none;stroke-opacity:1"
     id="rect6"
     width="1.6753229"
     height="8.1995945"
     x="5.1730552"
     y="7.3884959"
     ry="3.2325327" />
  <path
     style="fill:#ffffff;fill-opacity:1;stroke:#ffffff;stroke-width:1.05992;stroke-dasharray:none;stroke-opacity:1"
     d="m 5.0904474,17.630346 2.9283291,-2.414414 -0.04316,-2.752541 v -1.779347"
     id="path5"
     sodipodi:nodetypes="cccc" />
  <path
     style="fill:#ffffff;fill-opacity:1;stroke:#ffffff;stroke-width:1.05992;stroke-dasharray:none;stroke-opacity:1"
     d="m 5.4293704,5.9776502 2.589406,2.160222 -0.04316,2.7525398 v 0"
     id="path6" />
  <path
     style="fill:#ffffff;fill-opacity:1;stroke:#ffffff;stroke-width:1.25864;stroke-dasharray:none;stroke-opacity:1"
     id="path3"
     sodipodi:type="arc"
     sodipodi:cx="8.5893917"
     sodipodi:cy="11.926614"
     sodipodi:rx="4.9617805"
     sodipodi:ry="6.8926306"
     sodipodi:start="2.1590761"
     sodipodi:end="4.1822915"
     sodipodi:arc-type="arc"
     d="M 5.8359469,17.660569 A 4.9617805,6.8926306 0 0 1 3.6297106,11.726128 4.9617805,6.8926306 0 0 1 6.0806289,5.9799431"
     sodipodi:open="true" />
  <ellipse
     style="fill:#ffffff;fill-opacity:1;stroke:#ffffff;stroke-width:0.823634;stroke-dasharray:none;stroke-opacity:1"
     id="ellipse7"
     cx="6.1166739"
     cy="14.02194"
     rx="0.55662209"
     ry="0.49670833" />
  <ellipse
     style="fill:#ffffff;fill-opacity:1;stroke:#ffffff;stroke-width:0.823634;stroke-dasharray:none;stroke-opacity:1"
     id="ellipse8"
     cx="6.0567603"
     cy="9.678195"
     rx="0.55662209"
     ry="0.49670833" />
</svg>
