<?xml version="1.0" encoding="UTF-8" standalone="no"?>
<svg
   width="24"
   height="24"
   viewBox="0 0 24 24"
   fill="none"
   version="1.1"
   id="svg1"
   sodipodi:docname="ic_fluent_vehicle_address_24_regular.svg"
   xml:space="preserve"
   inkscape:version="1.3.2 (091e20e, 2023-11-25, custom)"
   xmlns:inkscape="http://www.inkscape.org/namespaces/inkscape"
   xmlns:sodipodi="http://sodipodi.sourceforge.net/DTD/sodipodi-0.dtd"
   xmlns="http://www.w3.org/2000/svg"
   xmlns:svg="http://www.w3.org/2000/svg"><defs
     id="defs1" /><sodipodi:namedview
     id="namedview1"
     pagecolor="#ffffff"
     bordercolor="#000000"
     borderopacity="0.25"
     inkscape:showpageshadow="2"
     inkscape:pageopacity="0.0"
     inkscape:pagecheckerboard="0"
     inkscape:deskcolor="#d1d1d1"
     inkscape:zoom="46.916667"
     inkscape:cx="12.021314"
     inkscape:cy="12.021314"
     inkscape:window-width="2560"
     inkscape:window-height="1351"
     inkscape:window-x="-9"
     inkscape:window-y="-9"
     inkscape:window-maximized="1"
     inkscape:current-layer="svg1" /><path
     d="m 6.3934281,12.488455 c 0.88759,0 0.4547667,0.01393 2.6109719,0.01154 H 18.5 l 2e-4,-5.75 c 0,-1.24264 -1.0074,-2.25 -2.25,-2.25 H 12.6865 C 12.5142,3.96653 12.2747,3.46321 11.9782,3 h 4.272 c 2.071,0 3.75,1.67893 3.75,3.75 v 9 c 0,1.7753 -1.2336,3.2624 -2.8903,3.651 l 2.4627,1.1719 c 0.374,0.178 0.5328,0.6256 0.3547,0.9996 -0.1632,0.3428 -0.5529,0.5048 -0.9047,0.3922 L 18.9277,21.9271 13.83,19.5 H 10.169 L 5.07263,21.9271 C 4.69865,22.1052 4.25111,21.9464 4.07303,21.5725 3.89495,21.1985 4.05375,20.7509 4.42772,20.5729 l 2.46233,-1.172 C 5.23353,19.0121 4.00017,17.5251 4.00017,15.75 v -3.2481 c 0.9826939,-0.02013 1.5074281,-0.01344 2.3932581,-0.01344 z M 18.5002,15.75 18.5,14 h -13 l 1.7e-4,1.75 c 0,1.2426 1.00736,2.25 2.25,2.25 h 8.50003 c 1.2426,0 2.25,-1.0074 2.25,-2.25 z M 8.00018,15 c 0.55228,0 1,0.4477 1,1 0,0.5523 -0.44772,1 -1,1 -0.55229,0 -1.00001,-0.4477 -1.00001,-1 0,-0.5523 0.44772,-1 1.00001,-1 z m 8.00002,0 c 0.5523,0 1,0.4477 1,1 0,0.5523 -0.4477,1 -1,1 -0.5523,0 -1,-0.4477 -1,-1 0,-0.5523 0.4477,-1 1,-1 z"
     fill="#212121"
     id="path1"
     sodipodi:nodetypes="scccsccssscccccccccccscsccccsscssssssssss" /><g
     style="fill:none"
     id="g1"
     transform="matrix(0.98180593,0,0,0.88625593,1.3911109,2.4943726)"><path
       d="m 0.98312607,0.973357 c -0.90984615,0 -1.64742447,0.8389705 -1.64742447,1.8738899 v 5.2468917 c 0,1.0349122 0.73757832,1.8738902 1.64742447,1.8738902 H 8.2317943 c 0.9098397,0 1.6474247,-0.838978 1.6474247,-1.8738902 V 2.8472469 c 0,-1.0349194 -0.737585,-1.8738899 -1.6474247,-1.8738899 z m -0.98845466,1.8738899 c 0,-0.6209546 0.44254434,-1.1243339 0.98845466,-1.1243339 H 8.2317943 c 0.5458906,0 0.9884548,0.5033793 0.9884548,1.1243339 v 5.2468917 c 0,0.6209322 -0.4425642,1.1243342 -0.9884548,1.1243342 H 0.98312607 c -0.54591032,0 -0.98845466,-0.503402 -0.98845466,-1.1243342 z m 0.98845466,-0.374778 c -0.1819679,0 -0.32948486,0.1677956 -0.32948486,0.374778 0,0.2069824 0.14751696,0.374778 0.32948486,0.374778 H 4.2779752 c 0.1819679,0 0.3294849,-0.1677956 0.3294849,-0.374778 0,-0.2069824 -0.147517,-0.374778 -0.3294849,-0.374778 z m 0,1.4991119 c -0.1819679,0 -0.32948486,0.1677956 -0.32948486,0.374778 0,0.2069824 0.14751696,0.374778 0.32948486,0.374778 H 6.2548849 c 0.1819416,0 0.3294849,-0.1677956 0.3294849,-0.374778 0,-0.2069824 -0.1475433,-0.374778 -0.3294849,-0.374778 z M 1.312611,6.2202487 c -0.36393583,0 -0.65896979,0.3355762 -0.65896979,0.749556 v 0.7495559 c 0,0.4139798 0.29503396,0.7495562 0.65896979,0.7495562 h 2.6358793 c 0.3639358,0 0.6589698,-0.3355764 0.6589698,-0.7495562 V 6.9698047 c 0,-0.4139798 -0.295034,-0.749556 -0.6589698,-0.749556 z"
       fill="#212121"
       id="path1-1"
       style="stroke-width:0.702805" /></g></svg>
