<?xml version="1.0" encoding="UTF-8" standalone="no"?>
<svg
   width="24"
   height="24"
   viewBox="0 0 24 24"
   fill="none"
   version="1.1"
   id="svg1"
   sodipodi:docname="ic_fluent_form_new_24_dark.svg"
   inkscape:version="1.3.2 (091e20e, 2023-11-25, custom)"
   xmlns:inkscape="http://www.inkscape.org/namespaces/inkscape"
   xmlns:sodipodi="http://sodipodi.sourceforge.net/DTD/sodipodi-0.dtd"
   xmlns="http://www.w3.org/2000/svg"
   xmlns:svg="http://www.w3.org/2000/svg">
  <defs
     id="defs1" />
  <sodipodi:namedview
     id="namedview1"
     pagecolor="#ffffff"
     bordercolor="#000000"
     borderopacity="0.25"
     inkscape:showpageshadow="2"
     inkscape:pageopacity="0.0"
     inkscape:pagecheckerboard="0"
     inkscape:deskcolor="#d1d1d1"
     inkscape:zoom="46.916667"
     inkscape:cx="11.989343"
     inkscape:cy="12.319716"
     inkscape:window-width="2560"
     inkscape:window-height="1351"
     inkscape:window-x="-9"
     inkscape:window-y="-9"
     inkscape:window-maximized="1"
     inkscape:current-layer="svg1" />
  <path
     d="M6.25 3C4.45507 3 3 4.45507 3 6.25V17.75C3 19.5449 4.45507 21 6.25 21H12.0218C11.7253 20.5368 11.4858 20.0335 11.3135 19.5H6.25C5.2835 19.5 4.5 18.7165 4.5 17.75V6.25C4.5 5.2835 5.2835 4.5 6.25 4.5H17.75C18.7165 4.5 19.5 5.2835 19.5 6.25V11.3135C20.0335 11.4858 20.5368 11.7253 21 12.0218V6.25C21 4.45507 19.5449 3 17.75 3H6.25ZM17.5 11C17.6518 11 17.8024 11.0052 17.9517 11.0154C17.9829 10.9329 18 10.8435 18 10.75C18 10.3358 17.6642 10 17.25 10H12.75C12.3358 10 12 10.3358 12 10.75C12 11.1642 12.3358 11.5 12.75 11.5H14.9956C15.7664 11.1779 16.6124 11 17.5 11ZM6.75 6C6.33579 6 6 6.33579 6 6.75C6 7.16421 6.33579 7.5 6.75 7.5H17.25C17.6642 7.5 18 7.16421 18 6.75C18 6.33579 17.6642 6 17.25 6H6.75ZM6 10.75C6 9.50736 7.00736 8.5 8.25 8.5C9.49264 8.5 10.5 9.50736 10.5 10.75C10.5 11.9926 9.49264 13 8.25 13C7.00736 13 6 11.9926 6 10.75ZM8.25 10C7.83579 10 7.5 10.3358 7.5 10.75C7.5 11.1642 7.83579 11.5 8.25 11.5C8.66421 11.5 9 11.1642 9 10.75C9 10.3358 8.66421 10 8.25 10ZM8.25 14C7.00736 14 6 15.0074 6 16.25C6 17.4926 7.00736 18.5 8.25 18.5C9.49264 18.5 10.5 17.4926 10.5 16.25C10.5 15.0074 9.49264 14 8.25 14ZM7.5 16.25C7.5 15.8358 7.83579 15.5 8.25 15.5C8.66421 15.5 9 15.8358 9 16.25C9 16.6642 8.66421 17 8.25 17C7.83579 17 7.5 16.6642 7.5 16.25ZM23 17.5C23 14.4624 20.5376 12 17.5 12C14.4624 12 12 14.4624 12 17.5C12 20.5376 14.4624 23 17.5 23C20.5376 23 23 20.5376 23 17.5ZM18.0006 18L18.0011 20.5035C18.0011 20.7797 17.7773 21.0035 17.5011 21.0035C17.225 21.0035 17.0011 20.7797 17.0011 20.5035L17.0006 18H14.4956C14.2197 18 13.9961 17.7762 13.9961 17.5C13.9961 17.2239 14.2197 17 14.4956 17H17.0005L17 14.4993C17 14.2231 17.2239 13.9993 17.5 13.9993C17.7761 13.9993 18 14.2231 18 14.4993L18.0005 17H20.4966C20.7725 17 20.9961 17.2239 20.9961 17.5C20.9961 17.7762 20.7725 18 20.4966 18H18.0006Z"
     fill="#212121"
     id="path1"
     style="fill:#ffffff;fill-opacity:1" />
</svg>
