<?xml version="1.0" encoding="UTF-8" standalone="no"?>
<svg
   width="24"
   height="24"
   viewBox="0 0 24 24"
   fill="none"
   version="1.1"
   id="svg1"
   sodipodi:docname="ic_fluent_laptop_24_dark.svg"
   inkscape:version="1.4.2 (f4327f4, 2025-05-13)"
   xmlns:inkscape="http://www.inkscape.org/namespaces/inkscape"
   xmlns:sodipodi="http://sodipodi.sourceforge.net/DTD/sodipodi-0.dtd"
   xmlns="http://www.w3.org/2000/svg"
   xmlns:svg="http://www.w3.org/2000/svg">
  <defs
     id="defs1" />
  <sodipodi:namedview
     id="namedview1"
     pagecolor="#ffffff"
     bordercolor="#000000"
     borderopacity="0.25"
     inkscape:showpageshadow="2"
     inkscape:pageopacity="0.0"
     inkscape:pagecheckerboard="0"
     inkscape:deskcolor="#d1d1d1"
     inkscape:zoom="47.208333"
     inkscape:cx="12"
     inkscape:cy="12"
     inkscape:window-width="2560"
     inkscape:window-height="1351"
     inkscape:window-x="2391"
     inkscape:window-y="-9"
     inkscape:window-maximized="1"
     inkscape:current-layer="svg1" />
  <path
     d="M6.25 4C5.00736 4 4 5.00736 4 6.25V13.75C4 14.9926 5.00736 16 6.25 16H17.75C18.9926 16 20 14.9926 20 13.75V6.25C20 5.00736 18.9926 4 17.75 4H6.25ZM5.5 6.25C5.5 5.83579 5.83579 5.5 6.25 5.5H17.75C18.1642 5.5 18.5 5.83579 18.5 6.25V13.75C18.5 14.1642 18.1642 14.5 17.75 14.5H6.25C5.83579 14.5 5.5 14.1642 5.5 13.75V6.25ZM2.75 17.5C2.33579 17.5 2 17.8358 2 18.25C2 18.6642 2.33579 19 2.75 19H21.25C21.6642 19 22 18.6642 22 18.25C22 17.8358 21.6642 17.5 21.25 17.5H2.75Z"
     fill="#212121"
     id="path1"
     style="fill:#ffffff;fill-opacity:1" />
</svg>
