<?xml version="1.0" encoding="UTF-8" standalone="no"?>
<svg
   width="24"
   height="24"
   viewBox="0 0 24 24"
   fill="none"
   version="1.1"
   id="svg1"
   sodipodi:docname="ic_fluent_save_24_dark.svg"
   inkscape:version="1.3.2 (091e20e, 2023-11-25, custom)"
   xmlns:inkscape="http://www.inkscape.org/namespaces/inkscape"
   xmlns:sodipodi="http://sodipodi.sourceforge.net/DTD/sodipodi-0.dtd"
   xmlns="http://www.w3.org/2000/svg"
   xmlns:svg="http://www.w3.org/2000/svg">
  <defs
     id="defs1" />
  <sodipodi:namedview
     id="namedview1"
     pagecolor="#ffffff"
     bordercolor="#000000"
     borderopacity="0.25"
     inkscape:showpageshadow="2"
     inkscape:pageopacity="0.0"
     inkscape:pagecheckerboard="0"
     inkscape:deskcolor="#d1d1d1"
     inkscape:zoom="47.375"
     inkscape:cx="11.989446"
     inkscape:cy="12"
     inkscape:window-width="2560"
     inkscape:window-height="1351"
     inkscape:window-x="-9"
     inkscape:window-y="-9"
     inkscape:window-maximized="1"
     inkscape:current-layer="svg1" />
  <path
     d="M3 5.75C3 4.23122 4.23122 3 5.75 3H15.7145C16.5764 3 17.4031 3.34241 18.0126 3.9519L20.0481 5.98744C20.6576 6.59693 21 7.42358 21 8.28553V18.25C21 19.7688 19.7688 21 18.25 21H5.75C4.23122 21 3 19.7688 3 18.25V5.75ZM5.75 4.5C5.05964 4.5 4.5 5.05964 4.5 5.75V18.25C4.5 18.9404 5.05964 19.5 5.75 19.5H6V14.25C6 13.0074 7.00736 12 8.25 12H15.75C16.9926 12 18 13.0074 18 14.25V19.5H18.25C18.9404 19.5 19.5 18.9404 19.5 18.25V8.28553C19.5 7.8214 19.3156 7.37629 18.9874 7.0481L16.9519 5.01256C16.6918 4.75246 16.3582 4.58269 16 4.52344V7.25C16 8.49264 14.9926 9.5 13.75 9.5H9.25C8.00736 9.5 7 8.49264 7 7.25V4.5H5.75ZM16.5 19.5V14.25C16.5 13.8358 16.1642 13.5 15.75 13.5H8.25C7.83579 13.5 7.5 13.8358 7.5 14.25V19.5H16.5ZM8.5 4.5V7.25C8.5 7.66421 8.83579 8 9.25 8H13.75C14.1642 8 14.5 7.66421 14.5 7.25V4.5H8.5Z"
     fill="#212121"
     id="path1"
     style="fill:#ffffff;fill-opacity:1" />
</svg>
