<?xml version="1.0" encoding="UTF-8" standalone="no"?>
<svg
   width="24"
   height="24"
   viewBox="0 0 24 24"
   fill="none"
   version="1.1"
   id="svg1"
   sodipodi:docname="ic_fluent_arrow_download_24_regular.svg"
   inkscape:version="1.3.2 (091e20e, 2023-11-25, custom)"
   xmlns:inkscape="http://www.inkscape.org/namespaces/inkscape"
   xmlns:sodipodi="http://sodipodi.sourceforge.net/DTD/sodipodi-0.dtd"
   xmlns="http://www.w3.org/2000/svg"
   xmlns:svg="http://www.w3.org/2000/svg">
  <defs
     id="defs1" />
  <sodipodi:namedview
     id="namedview1"
     pagecolor="#ffffff"
     bordercolor="#000000"
     borderopacity="0.25"
     inkscape:showpageshadow="2"
     inkscape:pageopacity="0.0"
     inkscape:pagecheckerboard="0"
     inkscape:deskcolor="#d1d1d1"
     inkscape:zoom="33.175094"
     inkscape:cx="18.221501"
     inkscape:cy="15.855268"
     inkscape:window-width="2560"
     inkscape:window-height="1351"
     inkscape:window-x="-9"
     inkscape:window-y="-9"
     inkscape:window-maximized="1"
     inkscape:current-layer="svg1" />
  <path
     d="M 18.352014,7.9856766 C 18.584952,7.752421 18.575493,7.3831322 18.33098,7.1609208 18.086465,6.9387103 17.699351,6.9477322 17.466413,7.1809895 L 12.611584,12.043111 V 0.58333305 C 12.611582,0.26117004 12.337878,0 12.000091,0 11.662385,0 11.388599,0.26117004 11.388599,0.58333305 V 12.043422 L 6.5335409,7.1809878 C 6.3006121,6.9477322 5.9135551,6.9387103 5.6690149,7.1609188 5.4244844,7.3831303 5.4150673,7.7524189 5.6479929,7.9856746 L 11.409632,13.75593 c 0.131267,0.131522 0.298733,0.209221 0.472887,0.233255 0.03807,0.0071 0.07737,0.01081 0.117569,0.01081 0.04052,0 0.08015,-0.0038 0.118465,-0.01097 0.173746,-0.02419 0.340805,-0.101889 0.471826,-0.2331 z"
     fill="#212121"
     id="path1-5"
     style="stroke-width:0.796303;stroke-dasharray:none" />
  <rect
     style="fill:#212121;fill-opacity:0;stroke:#212121;stroke-width:1.356;stroke-linecap:round;stroke-linejoin:round;stroke-dasharray:none;stroke-opacity:1"
     id="rect1"
     width="11.247381"
     height="6.945394"
     x="6.2924576"
     y="16.364046"
     ry="1.1273065"
     rx="1.2358673" />
  <path
     style="fill:#000000;fill-opacity:0;stroke:#212121;stroke-width:1.356;stroke-linecap:round;stroke-linejoin:round;stroke-dasharray:none;stroke-opacity:1"
     d="m 4.2160374,17.473985 h 1.755465"
     id="path1" />
  <path
     style="fill:#000000;fill-opacity:0;stroke:#212121;stroke-width:1.356;stroke-linecap:round;stroke-linejoin:round;stroke-dasharray:none;stroke-opacity:1"
     d="m 4.2160374,19.836751 h 1.755465"
     id="path1-1" />
  <path
     style="fill:#000000;fill-opacity:0;stroke:#212121;stroke-width:1.356;stroke-linecap:round;stroke-linejoin:round;stroke-dasharray:none;stroke-opacity:1"
     d="m 4.2160374,22.199516 h 1.755465"
     id="path1-1-5" />
  <rect
     style="fill:#000000;fill-opacity:0;stroke:#212121;stroke-width:1.356;stroke-linecap:round;stroke-linejoin:round;stroke-dasharray:none;stroke-opacity:1"
     id="rect2"
     width="2.8459811"
     height="2.8819473"
     x="10.493147"
     y="18.395769"
     ry="1.1703377"
     rx="1.4229906" />
</svg>
