<?xml version="1.0" encoding="UTF-8" standalone="no"?>
<svg
   width="24"
   height="24"
   viewBox="0 0 24 24"
   fill="none"
   version="1.1"
   id="svg1"
   sodipodi:docname="ic_fluent_sign_out_24_regular - Kopie.svg"
   inkscape:version="1.4.2 (f4327f4, 2025-05-13)"
   xmlns:inkscape="http://www.inkscape.org/namespaces/inkscape"
   xmlns:sodipodi="http://sodipodi.sourceforge.net/DTD/sodipodi-0.dtd"
   xmlns="http://www.w3.org/2000/svg"
   xmlns:svg="http://www.w3.org/2000/svg">
  <defs
     id="defs1" />
  <sodipodi:namedview
     id="namedview1"
     pagecolor="#ffffff"
     bordercolor="#000000"
     borderopacity="0.25"
     inkscape:showpageshadow="2"
     inkscape:pageopacity="0.0"
     inkscape:pagecheckerboard="0"
     inkscape:deskcolor="#d1d1d1"
     inkscape:zoom="23.604167"
     inkscape:cx="2.6478376"
     inkscape:cy="13.027361"
     inkscape:window-width="2560"
     inkscape:window-height="1351"
     inkscape:window-x="2391"
     inkscape:window-y="-9"
     inkscape:window-maximized="1"
     inkscape:current-layer="svg1" />
  <path
     d="m 14.200296,12.240895 c 0.55347,0 1.00215,0.4487 1.00215,1.0022 0,0.5535 -0.44868,1.0021 -1.00215,1.0021 -0.55347,0 -1.00215,-0.4486 -1.00215,-1.0021 0,-0.5535 0.44868,-1.0022 1.00215,-1.0022 z m -6.4809665,3.338981 -0.02118,-3.262136 m 0.02118,-0.01059 -0.02118,-5.8162245 c -0.0013,-0.3673076 0.26601,-0.68057 0.62847,-0.74009 l 8.5000295,-1.39583 c 0.4566,-0.07498 0.8715,0.27736 0.8715,0.74009 v 6.1458005 8.75 c 0,0.4664 -0.4212,0.8197 -0.8804,0.7386 l -8.5000495,-1.5013 c -0.35834,-0.0633 -0.61955,-0.3747 -0.61955,-0.7386 l 0.02118,-2.909719 m 1.5,-0.08473 -0.02118,2.36535 6.9999995,1.2364 V 5.9782945 l -6.9999995,1.14951 0.05296,5.2534835 M 10.193739,12.105913 9.2193355,15.495145 M 20.186446,6.3880345 c 0.01836,1.4502814 -0.105249,-0.1428266 0,0 z"
     fill="#212121"
     id="path1"
     sodipodi:nodetypes="ssssscccsccsccccsccccccccccc" />
  <rect
     style="fill:#ffffff;stroke:#ffffff;stroke-width:1.6035"
     id="rect1"
     width="5.0614367"
     height="7.6245432"
     x="5.8576307"
     y="8.7596607"
     ry="2.2365155"
     rx="0" />
  <path
     d="m -11.451458,-1.8997638 c -6.255368,-9.6376212 -6.255368,-9.6376212 0,0 z M 6.6196005,20.12908 c -24.3264265,-31.666465 -24.3264265,-31.666465 0,0 z M 6.8231085,9.6014954 c -0.2713439,-0.2688882 -0.2713439,-0.7047841 0,-0.973674 0.271482,-0.268751 0.711582,-0.268751 0.983065,0 l 3.4752025,3.4420056 c 0.271344,0.268889 0.271344,0.704785 0,0.973674 l -3.4752025,3.442008 c -0.271483,0.268752 -0.711583,0.268752 -0.983065,0 -0.2713439,-0.26889 -0.2713439,-0.704786 0,-0.973676 l 2.288768,-2.266767 H 2.4493558 c -0.3838014,0 -0.6950406,-0.308266 -0.6950406,-0.688401 0,-0.380136 0.3112392,-0.688402 0.6950406,-0.688402 h 6.6625207 z"
     fill="#212121"
     id="path1-5"
     sodipodi:nodetypes="ccsscccccccccssscc"
     style="stroke-width:1.38342" />
</svg>
