<?xml version="1.0" encoding="UTF-8" standalone="no"?>
<svg
   width="24"
   height="24"
   viewBox="0 0 24 24"
   fill="none"
   version="1.1"
   id="svg1"
   sodipodi:docname="ic_fluent_low_beam_24_regular.svg"
   xml:space="preserve"
   inkscape:version="1.3.2 (091e20e, 2023-11-25, custom)"
   xmlns:inkscape="http://www.inkscape.org/namespaces/inkscape"
   xmlns:sodipodi="http://sodipodi.sourceforge.net/DTD/sodipodi-0.dtd"
   xmlns="http://www.w3.org/2000/svg"
   xmlns:svg="http://www.w3.org/2000/svg"><defs
     id="defs1" /><sodipodi:namedview
     id="namedview1"
     pagecolor="#ffffff"
     bordercolor="#000000"
     borderopacity="0.25"
     inkscape:showpageshadow="2"
     inkscape:pageopacity="0.0"
     inkscape:pagecheckerboard="0"
     inkscape:deskcolor="#d1d1d1"
     inkscape:zoom="23.458333"
     inkscape:cx="26.9627"
     inkscape:cy="8.1847247"
     inkscape:window-width="2560"
     inkscape:window-height="1351"
     inkscape:window-x="-9"
     inkscape:window-y="-9"
     inkscape:window-maximized="1"
     inkscape:current-layer="svg1" /><g
     style="fill:#000000"
     id="g1"
     transform="matrix(0.10519949,0,0,0.10270469,1.1149154,0.9310233)"><g
       id="g6">
	<path
   d="m 182.327,44.824 c -16.482,-12.068 -37.005,-19.272 -54.9,-19.272 -18.011,0 -31.322,7.262 -39.563,21.583 -6.457,11.221 -9.597,26.52 -9.597,46.771 0,20.25 3.139,35.549 9.597,46.771 8.242,14.321 21.553,21.583 39.563,21.583 17.895,0 38.418,-7.205 54.9,-19.273 18.748,-13.727 29.072,-31.158 29.072,-49.081 0,-17.925 -10.325,-35.356 -29.072,-49.082 z m -8.862,86.059 c -13.795,10.101 -31.437,16.376 -46.039,16.376 -15.904,0 -34.16,-6.064 -34.16,-53.354 0,-47.289 18.256,-53.354 34.16,-53.354 14.603,0 32.244,6.275 46.039,16.375 14.575,10.671 22.934,24.149 22.934,36.979 0,12.829 -8.359,26.307 -22.934,36.978 z"
   id="path1" />
	<path
   d="M 60.703,33.943 4.148,62.22 c -3.705,1.852 -5.207,6.357 -3.354,10.062 1.314,2.628 3.962,4.147 6.714,4.147 1.127,0 2.271,-0.255 3.348,-0.794 L 67.412,47.358 C 71.117,45.506 72.619,41 70.766,37.296 68.913,33.591 64.408,32.088 60.703,33.943 Z"
   id="path2" />
	<path
   d="M 60.703,61.297 4.148,89.575 c -3.705,1.852 -5.207,6.357 -3.354,10.062 1.314,2.628 3.962,4.147 6.714,4.147 1.127,0 2.271,-0.255 3.348,-0.793 L 67.412,74.713 c 3.705,-1.852 5.207,-6.357 3.354,-10.062 -1.853,-3.706 -6.358,-5.208 -10.063,-3.354 z"
   id="path3" />
	<path
   d="M 60.703,88.651 4.148,116.928 c -3.705,1.852 -5.207,6.357 -3.354,10.062 1.314,2.628 3.962,4.147 6.714,4.147 1.127,0 2.271,-0.255 3.348,-0.793 l 56.556,-28.277 c 3.705,-1.852 5.207,-6.357 3.354,-10.062 -1.853,-3.706 -6.358,-5.207 -10.063,-3.354 z"
   id="path4" />
	<path
   d="M 60.703,116.005 4.148,144.284 c -3.705,1.852 -5.207,6.357 -3.354,10.062 1.314,2.628 3.962,4.147 6.714,4.147 1.127,0 2.271,-0.255 3.348,-0.793 l 56.556,-28.278 c 3.705,-1.852 5.207,-6.357 3.354,-10.062 -1.853,-3.706 -6.358,-5.208 -10.063,-3.355 z"
   id="path5" />
	<path
   d="M 60.703,143.36 4.148,171.638 c -3.705,1.852 -5.207,6.357 -3.354,10.062 1.314,2.628 3.962,4.147 6.714,4.147 1.127,0 2.271,-0.255 3.348,-0.793 l 56.556,-28.278 c 3.705,-1.852 5.207,-6.357 3.354,-10.062 -1.853,-3.705 -6.358,-5.208 -10.063,-3.354 z"
   id="path6" />
</g></g></svg>
