<?xml version="1.0" encoding="UTF-8" standalone="no"?>
<svg
   width="24"
   height="24"
   viewBox="0 0 24 24"
   fill="none"
   version="1.1"
   id="svg1"
   sodipodi:docname="ic_fluent_step_24_regular_dark.svg"
   inkscape:version="1.4.2 (f4327f4, 2025-05-13)"
   xmlns:inkscape="http://www.inkscape.org/namespaces/inkscape"
   xmlns:sodipodi="http://sodipodi.sourceforge.net/DTD/sodipodi-0.dtd"
   xmlns="http://www.w3.org/2000/svg"
   xmlns:svg="http://www.w3.org/2000/svg">
  <defs
     id="defs1" />
  <sodipodi:namedview
     id="namedview1"
     pagecolor="#ffffff"
     bordercolor="#000000"
     borderopacity="0.25"
     inkscape:showpageshadow="2"
     inkscape:pageopacity="0.0"
     inkscape:pagecheckerboard="0"
     inkscape:deskcolor="#d1d1d1"
     inkscape:zoom="46.75"
     inkscape:cx="12"
     inkscape:cy="12"
     inkscape:window-width="2560"
     inkscape:window-height="1351"
     inkscape:window-x="-9"
     inkscape:window-y="-9"
     inkscape:window-maximized="1"
     inkscape:current-layer="svg1" />
  <path
     d="M14.5 3.25C14.5 2.55964 15.0596 2 15.75 2H20.75C21.4404 2 22 2.55964 22 3.25V18.75C22 20.5449 20.5449 22 18.75 22H3.25C2.55964 22 2 21.4404 2 20.75V15.75C2 15.0596 2.55964 14.5 3.25 14.5H8V9.25C8 8.55964 8.55964 8 9.25 8H14.5V3.25ZM16 3.5V8.25C16 8.94036 15.4404 9.5 14.75 9.5H9.5V14.75C9.5 15.4404 8.94036 16 8.25 16H3.5V20.5H18.75C19.7165 20.5 20.5 19.7165 20.5 18.75V3.5H16Z"
     fill="#212121"
     id="path1"
     style="fill:#ffffff" />
</svg>
