<?xml version="1.0" encoding="UTF-8" standalone="no"?>
<svg
   width="24"
   height="24"
   viewBox="0 0 24 24"
   fill="none"
   version="1.1"
   id="svg1"
   sodipodi:docname="ic_fluent_transmission_engine_24_dark.svg"
   xml:space="preserve"
   inkscape:version="1.3.2 (091e20e, 2023-11-25, custom)"
   xmlns:inkscape="http://www.inkscape.org/namespaces/inkscape"
   xmlns:sodipodi="http://sodipodi.sourceforge.net/DTD/sodipodi-0.dtd"
   xmlns="http://www.w3.org/2000/svg"
   xmlns:svg="http://www.w3.org/2000/svg"><defs
     id="defs1" /><sodipodi:namedview
     id="namedview1"
     pagecolor="#ffffff"
     bordercolor="#000000"
     borderopacity="0.25"
     inkscape:showpageshadow="2"
     inkscape:pageopacity="0.0"
     inkscape:pagecheckerboard="0"
     inkscape:deskcolor="#d1d1d1"
     inkscape:zoom="46.916667"
     inkscape:cx="12.010657"
     inkscape:cy="12.010657"
     inkscape:window-width="1656"
     inkscape:window-height="1258"
     inkscape:window-x="776"
     inkscape:window-y="75"
     inkscape:window-maximized="0"
     inkscape:current-layer="svg1" /><g
     style="fill:#ffffff"
     id="g1"
     transform="matrix(0.71891652,0,0,0.71492007,0.71847252,0.00177625)"><path
       d="M 10,2 C 8.89543,2 8,2.89543 8,4 8,4.93329 8.63926,5.71727 9.50381,5.93797 9.5013,5.95829 9.5,5.97899 9.5,6 v 3.5 c 0,0.27614 0.22386,0.5 0.5,0.5 0.2761,0 0.5,-0.22386 0.5,-0.5 V 6 C 10.5,5.97899 10.4987,5.95829 10.4962,5.93797 11.3607,5.71727 12,4.93329 12,4 12,2.89543 11.1046,2 10,2 Z M 9,4 C 9,3.44772 9.44772,3 10,3 10.5523,3 11,3.44772 11,4 11,4.55228 10.5523,5 10,5 9.44772,5 9,4.55228 9,4 Z M 4,4 C 3.44772,4 3,4.44772 3,5 v 11 c 0,0.5523 0.44772,1 1,1 0.55228,0 1,-0.4477 1,-1 v -4 c 0,-0.2761 0.22386,-0.5 0.5,-0.5 h 3 C 8.77614,11.5 9,11.7239 9,12 v 4 c 0,0.5523 0.44772,1 1,1 0.5523,0 1,-0.4477 1,-1 V 12.5 C 11,12.2239 11.2239,12 11.5,12 h 5 C 16.7761,12 17,11.7761 17,11.5 V 5 C 17,4.44772 16.5523,4 16,4 15.4477,4 15,4.44772 15,5 v 4 c 0,0.27614 -0.2239,0.5 -0.5,0.5 H 12 C 11.7239,9.5 11.5,9.27614 11.5,9 11.5,8.72386 11.7239,8.5 12,8.5 h 2 V 5 c 0,-1.10457 0.8954,-2 2,-2 1.1046,0 2,0.89543 2,2 v 6.5 C 18,12.3284 17.3284,13 16.5,13 H 12 v 3 c 0,1.1046 -0.8954,2 -2,2 C 8.89543,18 8,17.1046 8,16 V 12.5 H 6 V 16 C 6,17.1046 5.10457,18 4,18 2.89543,18 2,17.1046 2,16 V 5 C 2,3.89543 2.89543,3 4,3 5.10457,3 6,3.89543 6,5 V 8.5 H 8 C 8.27614,8.5 8.5,8.72386 8.5,9 8.5,9.27614 8.27614,9.5 8,9.5 H 5.5 C 5.22386,9.5 5,9.27614 5,9 V 5 C 5,4.44772 4.55228,4 4,4 Z"
       fill="#212121"
       id="path1"
       style="fill:#ffffff" /></g><g
     style="fill:#ffffff"
     id="g2"
     transform="matrix(0.74422736,0,0,0.76774668,8.2664303,8.5002599)"><path
       d="M 8,3 C 8,2.72386 7.77614,2.5 7.5,2.5 7.22386,2.5 7,2.72386 7,3 V 4 H 6 C 4.89543,4 4,4.89543 4,6 V 9 H 3 V 6.5 C 3,6.22386 2.77614,6 2.5,6 2.22386,6 2,6.22386 2,6.5 v 6 C 2,12.7761 2.22386,13 2.5,13 2.77614,13 3,12.7761 3,12.5 V 10 h 1 v 2.8787 c 0,0.5304 0.21071,1.0391 0.58579,1.4142 L 7,16.7071 C 7.18754,16.8946 7.44189,17 7.70711,17 H 13.191 c 0.3788,0 0.725,-0.214 0.8944,-0.5528 L 14.809,15 H 16 c 1.1046,0 2,-0.8954 2,-2 V 8 C 18,6.89543 17.1046,6 16,6 H 14.809 L 14.0854,4.55279 C 13.916,4.214 13.5698,4 13.191,4 H 11 V 3 C 11,2.72386 10.7761,2.5 10.5,2.5 10.2239,2.5 10,2.72386 10,3 V 4 H 8 Z M 6,5 h 7.191 l 0.7236,1.44721 C 14.084,6.786 14.4302,7 14.809,7 H 16 c 0.5523,0 1,0.44772 1,1 v 5 c 0,0.5523 -0.4477,1 -1,1 h -1.191 c -0.3788,0 -0.725,0.214 -0.8944,0.5528 L 13.191,16 H 7.70711 L 5.29289,13.5858 C 5.10536,13.3983 5,13.1439 5,12.8787 V 6 C 5,5.44772 5.44772,5 6,5 Z M 7.5,7 C 7.77614,7 8,7.22386 8,7.5 V 10 c 0,0.5523 0.44772,1 1,1 h 1 V 7.5 C 10,7.22386 10.2239,7 10.5,7 10.7761,7 11,7.22386 11,7.5 V 11 h 3.5 c 0.2761,0 0.5,0.2239 0.5,0.5 0,0.2761 -0.2239,0.5 -0.5,0.5 H 9 C 7.89543,12 7,11.1046 7,10 V 7.5 C 7,7.22386 7.22386,7 7.5,7 Z"
       fill="#212121"
       id="path1-3"
       style="fill:#ffffff" /></g></svg>
