<?xml version="1.0" encoding="UTF-8" standalone="no"?>
<svg
   width="24"
   height="24"
   viewBox="0 0 24 24"
   fill="none"
   version="1.1"
   id="svg1"
   sodipodi:docname="ic_fluent_book_24_dark.svg"
   inkscape:version="1.4.2 (f4327f4, 2025-05-13)"
   xmlns:inkscape="http://www.inkscape.org/namespaces/inkscape"
   xmlns:sodipodi="http://sodipodi.sourceforge.net/DTD/sodipodi-0.dtd"
   xmlns="http://www.w3.org/2000/svg"
   xmlns:svg="http://www.w3.org/2000/svg">
  <defs
     id="defs1" />
  <sodipodi:namedview
     id="namedview1"
     pagecolor="#ffffff"
     bordercolor="#000000"
     borderopacity="0.25"
     inkscape:showpageshadow="2"
     inkscape:pageopacity="0.0"
     inkscape:pagecheckerboard="0"
     inkscape:deskcolor="#d1d1d1"
     inkscape:zoom="46.75"
     inkscape:cx="12"
     inkscape:cy="12"
     inkscape:window-width="2560"
     inkscape:window-height="1351"
     inkscape:window-x="-9"
     inkscape:window-y="-9"
     inkscape:window-maximized="1"
     inkscape:current-layer="svg1" />
  <path
     d="M7 6C7 5.44772 7.44772 5 8 5H16C16.5523 5 17 5.44772 17 6V8C17 8.55228 16.5523 9 16 9H8C7.44772 9 7 8.55228 7 8V6ZM8.5 7.5H15.5V6.5H8.5V7.5ZM4 4.5C4 3.11929 5.11929 2 6.5 2H18C19.3807 2 20.5 3.11929 20.5 4.5V18.75C20.5 19.1642 20.1642 19.5 19.75 19.5H5.5C5.5 20.0523 5.94772 20.5 6.5 20.5H19.75C20.1642 20.5 20.5 20.8358 20.5 21.25C20.5 21.6642 20.1642 22 19.75 22H6.5C5.11929 22 4 20.8807 4 19.5V4.5ZM5.5 18H19V4.5C19 3.94772 18.5523 3.5 18 3.5H6.5C5.94772 3.5 5.5 3.94772 5.5 4.5V18Z"
     fill="#212121"
     id="path1"
     style="fill:#ffffff;fill-opacity:1" />
</svg>
