<?xml version="1.0" encoding="UTF-8" standalone="no"?>
<svg
   width="24"
   height="24"
   viewBox="0 0 24 24"
   fill="none"
   version="1.1"
   id="svg1"
   sodipodi:docname="ic_fluent_arrow_download_diff_24_regular.svg"
   inkscape:version="1.3.2 (091e20e, 2023-11-25, custom)"
   xmlns:inkscape="http://www.inkscape.org/namespaces/inkscape"
   xmlns:sodipodi="http://sodipodi.sourceforge.net/DTD/sodipodi-0.dtd"
   xmlns="http://www.w3.org/2000/svg"
   xmlns:svg="http://www.w3.org/2000/svg">
  <defs
     id="defs1" />
  <sodipodi:namedview
     id="namedview1"
     pagecolor="#ffffff"
     bordercolor="#000000"
     borderopacity="0.25"
     inkscape:showpageshadow="2"
     inkscape:pageopacity="0.0"
     inkscape:pagecheckerboard="0"
     inkscape:deskcolor="#d1d1d1"
     inkscape:zoom="33.175094"
     inkscape:cx="18.221501"
     inkscape:cy="15.885411"
     inkscape:window-width="2560"
     inkscape:window-height="1351"
     inkscape:window-x="-9"
     inkscape:window-y="-9"
     inkscape:window-maximized="1"
     inkscape:current-layer="svg1" />
  <path
     d="M 23.80944,7.9856766 C 24.042378,7.752421 24.032919,7.3831322 23.788406,7.1609208 23.543891,6.9387103 23.156777,6.9477322 22.923839,7.1809895 L 18.06901,12.043111 V 0.58333305 C 18.069008,0.26117004 17.795304,0 17.457517,0 17.119811,0 16.846025,0.26117004 16.846025,0.58333305 V 12.043422 L 11.990967,7.1809878 C 11.758038,6.9477322 11.370981,6.9387103 11.126441,7.1609188 10.88191,7.3831303 10.872493,7.7524189 11.105419,7.9856746 l 5.761639,5.7702554 c 0.131267,0.131522 0.298733,0.209221 0.472887,0.233255 0.03807,0.0071 0.07737,0.01081 0.117569,0.01081 0.04052,0 0.08015,-0.0038 0.118465,-0.01097 0.173746,-0.02419 0.340805,-0.101889 0.471826,-0.2331 z"
     fill="#212121"
     id="path1-5"
     style="stroke-width:0.796303;stroke-dasharray:none" />
  <rect
     style="fill:#212121;fill-opacity:0;stroke:#212121;stroke-width:1.356;stroke-linecap:round;stroke-linejoin:round;stroke-dasharray:none;stroke-opacity:1"
     id="rect1"
     width="11.247381"
     height="6.945394"
     x="11.960887"
     y="16.364046"
     ry="1.1273065"
     rx="1.2358673" />
  <path
     style="fill:#000000;fill-opacity:0;stroke:#212121;stroke-width:1.356;stroke-linecap:round;stroke-linejoin:round;stroke-dasharray:none;stroke-opacity:1"
     d="M 9.8844636,17.473985 H 11.639929"
     id="path1" />
  <path
     style="fill:#000000;fill-opacity:0;stroke:#212121;stroke-width:1.356;stroke-linecap:round;stroke-linejoin:round;stroke-dasharray:none;stroke-opacity:1"
     d="M 9.8844636,19.836751 H 11.639929"
     id="path1-1" />
  <path
     style="fill:#000000;fill-opacity:0;stroke:#212121;stroke-width:1.356;stroke-linecap:round;stroke-linejoin:round;stroke-dasharray:none;stroke-opacity:1"
     d="M 9.8844636,22.199516 H 11.639929"
     id="path1-1-5" />
  <rect
     style="fill:#000000;fill-opacity:0;stroke:#212121;stroke-width:1.356;stroke-linecap:round;stroke-linejoin:round;stroke-dasharray:none;stroke-opacity:1"
     id="rect2"
     width="2.8459811"
     height="2.8819473"
     x="16.161566"
     y="18.395769"
     ry="1.1703377"
     rx="1.4229906" />
  <path
     d="m 0.97271166,0.16533095 c -0.19526,-0.19526601 -0.51184,-0.19526601 -0.7071,0 -0.195266,0.19525999 -0.195266,0.51183999 0,0.70709999 L 2.4120517,3.0188809 h -1.29289 c -0.27614004,0 -0.50000004,0.22386 -0.50000004,0.5 0,0.27614 0.22386,0.5 0.50000004,0.5 h 2.29289 l 2,2 h -4.29289 c -0.27614004,0 -0.50000004,0.223861 -0.50000004,0.500001 0,0.276139 0.22386,0.5 0.50000004,0.5 h 5.29289 l 2.85351,2.8535997 c 0.1953,0.1951994 0.5119,0.1951994 0.7072,0 0.1951993,-0.1953 0.1951993,-0.511901 0,-0.7072007 z m 7.26766004,5.85354995 0.98799,0.988031 c 0.2236,-0.04983 0.3908,-0.24941 0.3908,-0.48803 0,-0.27614 -0.2239,-0.500001 -0.5,-0.500001 z m -3,-3 1,1 h 2.87879 c 0.2761,0 0.5,-0.22386 0.5,-0.5 0,-0.27614 -0.2239,-0.5 -0.5,-0.5 z"
     fill="#212121"
     id="path1-0" />
</svg>
