<?xml version="1.0" encoding="UTF-8" standalone="no"?>
<svg
   width="24"
   height="24"
   viewBox="0 0 24 24"
   fill="none"
   version="1.1"
   id="svg1"
   sodipodi:docname="ic_fluent_sound_onoff_24_regular.svg"
   xml:space="preserve"
   inkscape:version="1.3.2 (091e20e, 2023-11-25, custom)"
   xmlns:inkscape="http://www.inkscape.org/namespaces/inkscape"
   xmlns:sodipodi="http://sodipodi.sourceforge.net/DTD/sodipodi-0.dtd"
   xmlns="http://www.w3.org/2000/svg"
   xmlns:svg="http://www.w3.org/2000/svg"><defs
     id="defs1" /><sodipodi:namedview
     id="namedview1"
     pagecolor="#ffffff"
     bordercolor="#000000"
     borderopacity="0.25"
     inkscape:showpageshadow="2"
     inkscape:pageopacity="0.0"
     inkscape:pagecheckerboard="0"
     inkscape:deskcolor="#d1d1d1"
     inkscape:zoom="46.916667"
     inkscape:cx="11.989343"
     inkscape:cy="12"
     inkscape:window-width="2560"
     inkscape:window-height="1351"
     inkscape:window-x="-9"
     inkscape:window-y="-9"
     inkscape:window-maximized="1"
     inkscape:current-layer="svg1" /><g
     style="fill:none"
     id="g1"
     transform="translate(-1.3515608,-0.45471401)"><path
       d="M 8.69435,2.03934 C 8.87957,2.11749 8.99998,2.29898 8.99998,2.50001 V 13.5 c 0,0.2014 -0.12087,0.3832 -0.30661,0.4611 -0.18575,0.0779 -0.40011,0.0367 -0.5438,-0.1044 L 5.22314,10.9817 H 3.5 C 2.67157,10.9817 2,10.3101 2,9.48172 V 6.49273 c 0,-0.82842 0.67157,-1.5 1.5,-1.5 H 5.22438 L 8.15109,2.14185 C 8.2951,2.00157 8.50912,1.96119 8.69435,2.03934 Z M 7.99998,3.68507 5.77654,5.85089 C 5.68318,5.94184 5.55799,5.99273 5.42766,5.99273 H 3.5 c -0.27614,0 -0.5,0.22386 -0.5,0.5 v 2.98899 c 0,0.27614 0.22386,0.5 0.5,0.5 h 1.92766 c 0.13107,0 0.2569,0.05148 0.3504,0.14328 l 2.22192,2.1829 z m 2.11132,1.50367 c 0.1719,-0.2161 0.4864,-0.25192 0.7025,-0.08001 l 9e-4,6.7e-4 9e-4,7.5e-4 0.0021,0.00173 0.0054,0.0044 0.015,0.01254 c 0.0118,0.01003 0.0271,0.02342 0.0454,0.04022 0.0366,0.03357 0.0854,0.08086 0.1422,0.14215 0.1135,0.12243 0.26,0.30177 0.4049,0.54024 0.2916,0.47953 0.5737,1.19296 0.5737,2.14712 0,0.95413 -0.2821,1.66832 -0.5734,2.14855 -0.1449,0.2388 -0.2912,0.4186 -0.4046,0.5413 -0.0568,0.0614 -0.1055,0.1089 -0.1421,0.1425 -0.0197,0.0181 -0.0398,0.0357 -0.0602,0.0529 l -0.0085,0.0069 -8e-4,7e-4 c 0,0 -0.4464,0.2423 -0.7027,-0.0785 -0.17158,-0.2146 -0.13768,-0.5271 0.0751,-0.7001 l 0.0016,-0.0013 -8e-4,7e-4 0.0017,-0.0014 -9e-4,7e-4 c 0.0029,-0.0025 0.0092,-0.0079 0.0183,-0.0163 0.0182,-0.0168 0.0477,-0.0452 0.0848,-0.0854 0.0744,-0.08057 0.1785,-0.20732 0.2841,-0.38133 0.2095,-0.34546 0.4284,-0.88238 0.4284,-1.62992 0,-0.74749 -0.2188,-1.28333 -0.4281,-1.62765 C 10.4707,6.19744 10.3667,6.07121 10.2924,5.99105 10.2553,5.95104 10.2258,5.92278 10.2077,5.90613 10.1986,5.89781 10.1924,5.89242 10.1895,5.88995 l 10e-4,7.6e-4 C 9.97476,5.71873 9.93944,5.40472 10.1113,5.18874 Z M 11.813,3.10886 c -0.216,-0.172 -0.5305,-0.13631 -0.7026,0.07972 -0.1719,0.21593 -0.1358,0.53074 0.08,0.7028 l 0.011,0.00922 c 0.0109,0.00915 0.0284,0.02424 0.0517,0.04522 0.0467,0.04199 0.1162,0.10736 0.2011,0.19551 0.17,0.17659 0.3999,0.44278 0.6303,0.79376 0.4604,0.70134 0.9188,1.73338 0.9188,3.06896 0,1.33548 -0.4583,2.36535 -0.9185,3.06445 -0.2303,0.3499 -0.46,0.615 -0.6299,0.7908 -0.0848,0.0877 -0.1543,0.1528 -0.2009,0.1945 -0.0233,0.0209 -0.0408,0.0359 -0.0517,0.045 l -0.0115,0.0095 -9e-4,8e-4 c -0.2154,0.1717 -0.2514,0.4854 -0.0802,0.7014 0.1714,0.2164 0.4867,0.2523 0.7032,0.0808 l 0.0329,-0.0271 c 0.0185,-0.0155 0.044,-0.0374 0.0755,-0.0656 0.0628,-0.0563 0.1497,-0.1379 0.2526,-0.2443 0.2054,-0.2125 0.4761,-0.5257 0.7462,-0.936 0.5407,-0.8213 1.0832,-2.03946 1.0832,-3.61425 0,-1.57471 -0.5425,-2.79467 -1.0829,-3.61778 C 12.6504,3.97503 12.3798,3.66089 12.1745,3.4477 12.0718,3.34097 11.9849,3.25908 11.9221,3.20255 11.8907,3.17426 11.8652,3.15228 11.8467,3.13665 L 11.8243,3.11798 11.8172,3.11222 11.8148,3.11024 Z M 10.1895,5.88995 10.1881,5.88874 Z"
       fill="#212121"
       id="path1-4" /></g><g
     style="fill:none"
     id="g2"
     transform="translate(7.8259325,10.618117)"><path
       d="M 5,10 C 3.89543,10 3,9.10457 3,8 3,6.89543 3.89543,6 5,6 6.10457,6 7,6.89543 7,8 7,9.10457 6.10457,10 5,10 Z M 15,8 C 15,5.79086 13.2091,4 11,4 H 5 C 2.79086,4 1,5.79086 1,8 c 0,2.2091 1.79086,4 4,4 h 6 c 2.2091,0 4,-1.7909 4,-4 z M 11,5 c 1.6569,0 3,1.34315 3,3 0,1.65685 -1.3431,3 -3,3 H 5 C 3.34315,11 2,9.65685 2,8 2,6.34315 3.34315,5 5,5 Z"
       fill="#212121"
       id="path1" /></g></svg>
