<?xml version="1.0" encoding="UTF-8" standalone="no"?>
<svg
   width="24"
   height="24"
   viewBox="0 0 24 24"
   fill="none"
   version="1.1"
   id="svg1"
   sodipodi:docname="ic_fluent_deceleration_24_regular.svg"
   inkscape:version="1.4.2 (f4327f4, 2025-05-13)"
   xmlns:inkscape="http://www.inkscape.org/namespaces/inkscape"
   xmlns:sodipodi="http://sodipodi.sourceforge.net/DTD/sodipodi-0.dtd"
   xmlns="http://www.w3.org/2000/svg"
   xmlns:svg="http://www.w3.org/2000/svg">
  <defs
     id="defs1" />
  <sodipodi:namedview
     id="namedview1"
     pagecolor="#ffffff"
     bordercolor="#000000"
     borderopacity="0.25"
     inkscape:showpageshadow="2"
     inkscape:pageopacity="0.0"
     inkscape:pagecheckerboard="0"
     inkscape:deskcolor="#d1d1d1"
     inkscape:zoom="23.604166"
     inkscape:cx="15.590468"
     inkscape:cy="7.0962048"
     inkscape:window-width="2560"
     inkscape:window-height="1351"
     inkscape:window-x="2391"
     inkscape:window-y="-9"
     inkscape:window-maximized="1"
     inkscape:current-layer="svg1" />
  <g
     id="g1"
     transform="translate(0.69902995,0.25639955)">
    <path
       d="m 11.802735,3.2436009 c 4.6944,0 8.5,3.80558 8.5,8.4999991 0,4.6944 -3.8056,8.5 -8.5,8.5 -1.790704,0 -3.0027575,-0.373959 -4.4777175,-1.289602 -1.54024,-1.15004 -0.57768,-0.358282 -2.22708,-1.799269 -0.3914,-0.4606 -0.509883,-0.873529 -0.797004,-1.410929 -0.591518,-1.4895 0.07478,0.08642 -0.6243,-1.4991 -0.24309,-0.7908 -0.37393,-1.6306 -0.37393,-2.5011 0,-2.0974993 0.759741,-4.0175891 2.019061,-5.5000291 C 6.9055115,4.5430202 7.5936395,4.294238 7.5936395,4.294238 9.2635085,3.3782048 10.011631,3.2436009 11.802735,3.2436009 Z m 0,1.5 c -3.8660205,0 -7.0000305,3.13401 -7.0000305,6.9999991 0,3.866 3.13401,7 7.0000305,7 3.866,0 7,-3.134 7,-7 0,-3.8659891 -3.134,-6.9999991 -7,-6.9999991 z m 0.0031,1.50169 c 3.0384,0 5.5015,2.4631 5.5015,5.5015091 0,3.0384 -2.4631,5.5015 -5.5015,5.5015 -3.0383105,0 -5.5014405,-2.4631 -5.5014405,-5.5015 0,-3.0384091 2.46313,-5.5015091 5.5014405,-5.5015091 z m 1.1513,7.7144091 c -0.3453,0.1802 -0.738,0.2821 -1.1544,0.2821 -0.4121,0 -0.8009,-0.0998 -1.1435,-0.2764 l -1.0959085,1.0959 c 0.6397065,0.4336 1.4115085,0.687 2.2425085,0.687 0.8337,0 1.6078,-0.255 2.2486,-0.6911 z M 7.8043945,11.7468 c 0,0.8362 0.25651,1.6125 0.69513,2.2545 l 1.092903,-1.0912 c -0.184402,-0.3485 -0.288803,-0.7457 -0.288803,-1.1674 0,-0.4169 0.102101,-0.8099 0.282602,-1.1555 L 8.4954245,9.4982009 C 8.0593045,10.139101 7.8043945,10.9131 7.8043945,11.7468 Z m 7.3160405,-2.2425991 -1.095,1.0949991 c 0.1766,0.3427 0.2764,0.7314 0.2764,1.1435 0,0.4169 -0.1021,0.8099 -0.2826,1.1554 l 1.0971,1.0972 c 0.4361,-0.6408 0.691,-1.4149 0.691,-2.2485 0,-0.831 -0.2533,-1.602899 -0.6869,-2.2425991 z m -3.3177,1.2393991 c -0.5518,0 -0.9991,0.4473 -0.9991,0.9991 0,0.5518 0.4473,0.9991 0.9991,0.9991 0.5518,0 0.9991,-0.4473 0.9991,-0.9991 0,-0.5518 -0.4473,-0.9991 -0.9991,-0.9991 z m 0.0031,-2.9983091 c -0.834,0 -1.608502,0.25518 -2.2495085,0.69173 l 1.0899085,1.08968 c 0.3458,-0.1808 0.7392,-0.2831 1.1565,-0.2831 0.4212,0 0.8182,0.1042 1.1664,0.2883 l 1.0913,-1.09146 c -0.642,-0.43864 -1.4183,-0.69515 -2.2546,-0.69515 z"
       fill="#212121"
       id="path1"
       sodipodi:nodetypes="sssccccsccssssssssssscsccsccsccsccsccsccscssssssccsccs" />
    <rect
       style="fill:#ffffff;fill-opacity:1;stroke:#ffffff;stroke-width:2.19406;stroke-dasharray:none;stroke-opacity:1"
       id="rect6"
       width="1.6753229"
       height="8.1995945"
       x="4.4740252"
       y="7.1320963"
       ry="3.2325327" />
    <path
       style="fill:#ffffff;fill-opacity:1;stroke:#212121;stroke-width:1.05992;stroke-dasharray:none;stroke-opacity:1"
       d="m 4.3914175,17.373946 2.928329,-2.414414 -0.04316,-2.752541 v -1.779347"
       id="path5"
       sodipodi:nodetypes="cccc" />
    <path
       style="fill:#ffffff;fill-opacity:1;stroke:#212121;stroke-width:1.05992;stroke-dasharray:none;stroke-opacity:1"
       d="m 4.7303405,5.7212506 2.589406,2.160222 -0.04316,2.7525394 v 0"
       id="path6" />
    <path
       style="fill:none;fill-opacity:1;stroke:#212121;stroke-width:1.25864;stroke-dasharray:none;stroke-opacity:1"
       id="path3"
       sodipodi:type="arc"
       sodipodi:cx="7.8903613"
       sodipodi:cy="11.670215"
       sodipodi:rx="4.9617805"
       sodipodi:ry="6.8926306"
       sodipodi:start="2.1590761"
       sodipodi:end="4.1822915"
       sodipodi:arc-type="arc"
       d="M 5.1369165,17.40417 A 4.9617805,6.8926306 0 0 1 2.9306802,11.469728 4.9617805,6.8926306 0 0 1 5.3815985,5.723544"
       sodipodi:open="true" />
    <ellipse
       style="fill:#212121;fill-opacity:1;stroke:#212121;stroke-width:0.823634;stroke-dasharray:none;stroke-opacity:1"
       id="ellipse7"
       cx="5.417644"
       cy="13.765541"
       rx="0.55662209"
       ry="0.49670833" />
    <ellipse
       style="fill:#212121;fill-opacity:1;stroke:#212121;stroke-width:0.823634;stroke-dasharray:none;stroke-opacity:1"
       id="ellipse8"
       cx="5.3577304"
       cy="9.4217958"
       rx="0.55662209"
       ry="0.49670833" />
  </g>
</svg>
