<?xml version="1.0" encoding="UTF-8" standalone="no"?>
<svg
   width="24"
   height="24"
   viewBox="0 0 24 24"
   fill="none"
   version="1.1"
   id="svg1"
   sodipodi:docname="ic_fluent_arrow_right_24_dark.svg"
   inkscape:version="1.3.2 (091e20e, 2023-11-25, custom)"
   xmlns:inkscape="http://www.inkscape.org/namespaces/inkscape"
   xmlns:sodipodi="http://sodipodi.sourceforge.net/DTD/sodipodi-0.dtd"
   xmlns="http://www.w3.org/2000/svg"
   xmlns:svg="http://www.w3.org/2000/svg">
  <defs
     id="defs1" />
  <sodipodi:namedview
     id="namedview1"
     pagecolor="#ffffff"
     bordercolor="#000000"
     borderopacity="0.25"
     inkscape:showpageshadow="2"
     inkscape:pageopacity="0.0"
     inkscape:pagecheckerboard="0"
     inkscape:deskcolor="#d1d1d1"
     inkscape:zoom="46.916667"
     inkscape:cx="12"
     inkscape:cy="12"
     inkscape:window-width="2560"
     inkscape:window-height="1351"
     inkscape:window-x="-9"
     inkscape:window-y="-9"
     inkscape:window-maximized="1"
     inkscape:current-layer="svg1" />
  <path
     d="M13.2673 4.20889C12.9674 3.9232 12.4926 3.93475 12.2069 4.23467C11.9212 4.5346 11.9328 5.00933 12.2327 5.29502L18.4841 11.2496H3.75C3.33579 11.2496 3 11.5854 3 11.9996C3 12.4138 3.33579 12.7496 3.75 12.7496H18.4842L12.2327 18.7043C11.9328 18.99 11.9212 19.4648 12.2069 19.7647C12.4926 20.0646 12.9674 20.0762 13.2673 19.7905L20.6862 12.7238C20.8551 12.5629 20.9551 12.3576 20.9861 12.1443C20.9952 12.0975 21 12.0491 21 11.9996C21 11.9501 20.9952 11.9016 20.986 11.8547C20.955 11.6415 20.855 11.4364 20.6862 11.2756L13.2673 4.20889Z"
     fill="#212121"
     id="path1"
     style="fill:#ffffff;fill-opacity:1" />
</svg>
