<?xml version="1.0" encoding="UTF-8" standalone="no"?>
<svg
   width="24"
   height="24"
   viewBox="0 0 24 24"
   fill="none"
   version="1.1"
   id="svg1"
   sodipodi:docname="ic_fluent_lightbulbOnOff_24_dark.svg"
   xml:space="preserve"
   inkscape:version="1.3.2 (091e20e, 2023-11-25, custom)"
   xmlns:inkscape="http://www.inkscape.org/namespaces/inkscape"
   xmlns:sodipodi="http://sodipodi.sourceforge.net/DTD/sodipodi-0.dtd"
   xmlns="http://www.w3.org/2000/svg"
   xmlns:svg="http://www.w3.org/2000/svg"><defs
     id="defs1" /><sodipodi:namedview
     id="namedview1"
     pagecolor="#ffffff"
     bordercolor="#000000"
     borderopacity="0.25"
     inkscape:showpageshadow="2"
     inkscape:pageopacity="0.0"
     inkscape:pagecheckerboard="0"
     inkscape:deskcolor="#d1d1d1"
     inkscape:zoom="46.916667"
     inkscape:cx="11.989343"
     inkscape:cy="12.021314"
     inkscape:window-width="2560"
     inkscape:window-height="1351"
     inkscape:window-x="-9"
     inkscape:window-y="-9"
     inkscape:window-maximized="1"
     inkscape:current-layer="svg1" /><g
     style="fill:#ffffff"
     id="g1"
     transform="translate(7.0373002,10.085258)"><path
       d="M 5,10 C 3.89543,10 3,9.10457 3,8 3,6.89543 3.89543,6 5,6 6.10457,6 7,6.89543 7,8 7,9.10457 6.10457,10 5,10 Z M 15,8 C 15,5.79086 13.2091,4 11,4 H 5 C 2.79086,4 1,5.79086 1,8 c 0,2.2091 1.79086,4 4,4 h 6 c 2.2091,0 4,-1.7909 4,-4 z M 11,5 c 1.6569,0 3,1.34315 3,3 0,1.65685 -1.3431,3 -3,3 H 5 C 3.34315,11 2,9.65685 2,8 2,6.34315 3.34315,5 5,5 Z"
       fill="#212121"
       id="path1"
       style="fill:#ffffff" /></g><g
     style="fill:#ffffff"
     id="g2"
     transform="translate(-1.1047957,-0.57193605)"><path
       d="M 4.5,6.5 C 4.5,4.567 6.067,3 8,3 c 1.933,0 3.5,1.567 3.5,3.5 0,0.97709 -0.3997,1.85991 -1.0458,2.49541 -0.193,0.18983 -0.363,0.43648 -0.4447,0.73598 L 9.66356,11 H 6.33644 L 5.99046,9.73139 C 5.90878,9.43189 5.73883,9.18524 5.54584,8.99541 4.89973,8.35991 4.5,7.47709 4.5,6.5 Z M 6.60917,12 H 9.39083 L 9.21859,12.6316 C 9.15926,12.8491 8.96168,13 8.7362,13 H 7.2638 C 7.03832,13 6.84074,12.8491 6.78141,12.6316 Z M 8,2 C 5.51472,2 3.5,4.01472 3.5,6.5 3.5,7.75601 4.01523,8.89258 4.8446,9.70834 4.94136,9.80352 5.00044,9.9019 5.02569,9.9945 l 0.79096,2.9002 C 5.99463,13.5473 6.58737,14 7.2638,14 h 1.4724 c 0.67643,0 1.2692,-0.4527 1.4472,-1.1053 L 10.9743,9.9945 C 10.9996,9.9019 11.0586,9.80352 11.1554,9.70834 11.9848,8.89258 12.5,7.75601 12.5,6.5 12.5,4.01472 10.4853,2 8,2 Z"
       fill="#212121"
       id="path1-0"
       style="fill:#ffffff" /></g></svg>
