<?xml version="1.0" encoding="UTF-8" standalone="no"?>
<svg
   width="24"
   height="24"
   viewBox="0 0 24 24"
   fill="none"
   version="1.1"
   id="svg1"
   sodipodi:docname="ic_fluent_arrow_download_diff_24_dark.svg"
   inkscape:version="1.3.2 (091e20e, 2023-11-25, custom)"
   xmlns:inkscape="http://www.inkscape.org/namespaces/inkscape"
   xmlns:sodipodi="http://sodipodi.sourceforge.net/DTD/sodipodi-0.dtd"
   xmlns="http://www.w3.org/2000/svg"
   xmlns:svg="http://www.w3.org/2000/svg">
  <defs
     id="defs1" />
  <sodipodi:namedview
     id="namedview1"
     pagecolor="#ffffff"
     bordercolor="#000000"
     borderopacity="0.25"
     inkscape:showpageshadow="2"
     inkscape:pageopacity="0.0"
     inkscape:pagecheckerboard="0"
     inkscape:deskcolor="#d1d1d1"
     inkscape:zoom="46.916667"
     inkscape:cx="12.021314"
     inkscape:cy="12.021314"
     inkscape:window-width="2560"
     inkscape:window-height="1351"
     inkscape:window-x="-9"
     inkscape:window-y="-9"
     inkscape:window-maximized="1"
     inkscape:current-layer="svg1" />
  <path
     d="M 22.2498,20.5009 C 22.664,20.5008 23,20.8365 23,21.2507 c 0,0.4142 -0.3356,0.7501 -0.7498,0.7502 L 9.25022,22.0047 C 8.836,22.0048 8.5,21.6691 8.5,21.2549 8.5,20.8407 8.83557,20.5048 9.24978,20.5047 Z M 15.6482,2.01271 15.75,2.00586 c 0.3797,0 0.6935,0.28215 0.7432,0.64823 L 16.5,2.75586 16.499,16.4409 20.2208,12.7205 c 0.2663,-0.2662 0.683,-0.2904 0.9766,-0.0725 l 0.0841,0.0726 c 0.2662,0.2663 0.2904,0.683 0.0725,0.9766 l -0.0726,0.0841 -4.9977,4.9966 c -0.2661,0.2661 -0.6825,0.2904 -0.9761,0.0728 L 15.2235,18.7782 10.22003,13.7816 C 9.92694,13.4889 9.92661,13.014 10.21931,12.7209 10.48539,12.4545 10.90204,12.43 11.1958,12.6477 L 11.27997,12.7202 14.999,16.4339 15,2.75586 c 0,-0.3797 0.2822,-0.69349 0.6482,-0.74315 L 15.75,2.00586 Z"
     fill="#212121"
     id="path1"
     style="fill:#ffffff;fill-opacity:1" />
  <path
     d="m 1.2798377,0.71483316 c -0.19526,-0.195266 -0.51183996,-0.195266 -0.70709996,0 -0.195266,0.19526 -0.195266,0.51184004 0,0.70710004 l 2.14643996,2.14645 h -1.29289 c -0.27614,0 -0.49999996,0.22386 -0.49999996,0.5 0,0.27614 0.22385996,0.5 0.49999996,0.5 h 2.29289 l 2,2 h -4.29289 c -0.27614,0 -0.49999996,0.2238605 -0.49999996,0.5000005 0,0.276139 0.22385996,0.5 0.49999996,0.5 h 5.29289 l 2.85351,2.8536003 c 0.1953,0.195199 0.5119003,0.195199 0.7072003,0 0.1952,-0.1953 0.1952,-0.5119013 0,-0.7072013 z m 7.26766,5.85355004 0.98799,0.9880305 c 0.2236,-0.04983 0.3908,-0.24941 0.3908,-0.48803 0,-0.27614 -0.2239,-0.5000005 -0.5,-0.5000005 z m -3,-3 1,1 h 2.87879 c 0.2761,0 0.5,-0.22386 0.5,-0.5 0,-0.27614 -0.2239,-0.5 -0.5,-0.5 z"
     fill="#212121"
     id="path1-0"
     style="fill:#ffffff;fill-opacity:1" />
</svg>
