<?xml version="1.0" encoding="UTF-8" standalone="no"?>
<svg
   width="24"
   height="24"
   viewBox="0 0 24 24"
   fill="none"
   version="1.1"
   id="svg1"
   sodipodi:docname="ic_fluent_commandstation_edit_24_regular.svg"
   inkscape:version="1.4.2 (f4327f4, 2025-05-13)"
   xmlns:inkscape="http://www.inkscape.org/namespaces/inkscape"
   xmlns:sodipodi="http://sodipodi.sourceforge.net/DTD/sodipodi-0.dtd"
   xmlns="http://www.w3.org/2000/svg"
   xmlns:svg="http://www.w3.org/2000/svg">
  <defs
     id="defs1" />
  <sodipodi:namedview
     id="namedview1"
     pagecolor="#ffffff"
     bordercolor="#000000"
     borderopacity="0.25"
     inkscape:showpageshadow="2"
     inkscape:pageopacity="0.0"
     inkscape:pagecheckerboard="0"
     inkscape:deskcolor="#d1d1d1"
     inkscape:zoom="33.175093"
     inkscape:cx="12.132596"
     inkscape:cy="15.900483"
     inkscape:window-width="2560"
     inkscape:window-height="1351"
     inkscape:window-x="-9"
     inkscape:window-y="-9"
     inkscape:window-maximized="1"
     inkscape:current-layer="svg1" />
  <path
     id="rect1"
     style="fill:none;fill-opacity:1;stroke:#212121;stroke-width:1.426;stroke-linecap:round;stroke-linejoin:round;stroke-miterlimit:14.4;stroke-dasharray:none;stroke-opacity:1;paint-order:fill markers stroke"
     d="M 9.1014578 15.455482 L 3.7282162 15.455482 C 2.3108207 15.455482 1.1697407 14.302945 1.1697407 12.871317 L 1.1697407 11.128683 C 1.1697407 9.6970559 2.3108207 8.5445185 3.7282162 8.5445185 L 3.7282162 8.5445185 L 20.271784 8.5445185 C 21.689179 8.5445185 22.830259 9.6970559 22.830259 11.128683 L 22.830259 12.871317 C 22.830259 14.302945 21.689179 15.455482 20.271784 15.455482 L 18.541253 15.455482 " />
  <circle
     style="fill:none;fill-opacity:1;stroke:#212121;stroke-width:2.74732;stroke-linecap:round;stroke-linejoin:round;stroke-miterlimit:14.4;stroke-dasharray:none;stroke-opacity:1;paint-order:fill markers stroke"
     id="path2"
     cx="4.8916516"
     cy="12"
     r="0.64628029" />
  <text
     xml:space="preserve"
     style="font-weight:bold;font-size:4.83425px;font-family:'Segoe UI';-inkscape-font-specification:'Segoe UI Bold';fill:none;fill-opacity:1;stroke:#212121;stroke-width:0.362568;stroke-linecap:round;stroke-linejoin:round;stroke-miterlimit:14.4;stroke-dasharray:none;stroke-opacity:1;paint-order:fill markers stroke"
     x="7.6582174"
     y="14.95513"
     id="text2"
     transform="scale(0.97331965,1.0274117)"><tspan
       sodipodi:role="line"
       id="tspan2"
       x="7.6582174"
       y="14.95513"
       style="font-style:normal;font-variant:normal;font-weight:normal;font-stretch:normal;font-size:4.83425px;font-family:'Arial Rounded MT Bold';-inkscape-font-specification:'Arial Rounded MT Bold, ';stroke-width:0.362568;stroke-dasharray:none" /></text>
  <rect
     style="fill:none;fill-opacity:1;stroke:#212121;stroke-width:0.813423;stroke-linecap:round;stroke-linejoin:round;stroke-miterlimit:14.4;stroke-dasharray:none;stroke-opacity:1;paint-order:fill markers stroke"
     id="rect2"
     width="2.2441089"
     height="1.8950253"
     x="13.203452"
     y="11.052487"
     rx="0.38262486"
     ry="0.44882143" />
  <rect
     style="fill:none;fill-opacity:1;stroke:#212121;stroke-width:0.813423;stroke-linecap:round;stroke-linejoin:round;stroke-miterlimit:14.4;stroke-dasharray:none;stroke-opacity:1;paint-order:fill markers stroke"
     id="rect2-0"
     width="2.2441089"
     height="1.8950253"
     x="16.751295"
     y="11.052487"
     rx="0.38262486"
     ry="0.44882143" />
  <path
     d="m 8.4700798,17.642117 5.9019002,-5.9019 c 0.8926,-0.8925 2.3397,-0.8925 3.2322,0 0.8925,0.8925 0.8925,2.3396 0,3.2322 l -5.9019,5.9019 c -0.3441,0.3441 -0.7753,0.5882 -1.2474,0.7062 l -1.8305002,0.4577 c -0.7961,0.199 -1.5172,-0.5221 -1.3181,-1.3182 l 0.4576,-1.8305 c 0.118,-0.4721 0.3621,-0.9033 0.7062,-1.2474 z"
     fill="#212121"
     id="path1-7"
     sodipodi:nodetypes="scscsccccs" />
</svg>
