<?xml version="1.0" encoding="UTF-8" standalone="no"?>
<svg
   width="24"
   height="24"
   viewBox="0 0 24 24"
   fill="none"
   version="1.1"
   id="svg1"
   sodipodi:docname="ic_fluent_sound_wave_circle_24_dark.svg"
   inkscape:version="1.4.2 (f4327f4, 2025-05-13)"
   xmlns:inkscape="http://www.inkscape.org/namespaces/inkscape"
   xmlns:sodipodi="http://sodipodi.sourceforge.net/DTD/sodipodi-0.dtd"
   xmlns="http://www.w3.org/2000/svg"
   xmlns:svg="http://www.w3.org/2000/svg">
  <defs
     id="defs1" />
  <sodipodi:namedview
     id="namedview1"
     pagecolor="#ffffff"
     bordercolor="#000000"
     borderopacity="0.25"
     inkscape:showpageshadow="2"
     inkscape:pageopacity="0.0"
     inkscape:pagecheckerboard="0"
     inkscape:deskcolor="#d1d1d1"
     inkscape:zoom="47.208333"
     inkscape:cx="12"
     inkscape:cy="12"
     inkscape:window-width="2560"
     inkscape:window-height="1351"
     inkscape:window-x="2391"
     inkscape:window-y="-9"
     inkscape:window-maximized="1"
     inkscape:current-layer="svg1" />
  <path
     d="M11 8.75C11 8.33579 10.6642 8 10.25 8C9.83579 8 9.5 8.33579 9.5 8.75V15.25C9.5 15.6642 9.83579 16 10.25 16C10.6642 16 11 15.6642 11 15.25V8.75ZM17 8.75C17 8.33579 16.6642 8 16.25 8C15.8358 8 15.5 8.33579 15.5 8.75V15.25C15.5 15.6642 15.8358 16 16.25 16C16.6642 16 17 15.6642 17 15.25V8.75ZM14 10.25C14 9.83579 13.6642 9.5 13.25 9.5C12.8358 9.5 12.5 9.83579 12.5 10.25V13.75C12.5 14.1642 12.8358 14.5 13.25 14.5C13.6642 14.5 14 14.1642 14 13.75V10.25ZM8 10.75C8 10.3358 7.66421 10 7.25 10C6.83579 10 6.5 10.3358 6.5 10.75V13.25C6.5 13.6642 6.83579 14 7.25 14C7.66421 14 8 13.6642 8 13.25V10.75ZM12 2C6.47715 2 2 6.47715 2 12C2 17.5228 6.47715 22 12 22C17.5228 22 22 17.5228 22 12C22 6.47715 17.5228 2 12 2ZM3.5 12C3.5 7.30558 7.30558 3.5 12 3.5C16.6944 3.5 20.5 7.30558 20.5 12C20.5 16.6944 16.6944 20.5 12 20.5C7.30558 20.5 3.5 16.6944 3.5 12Z"
     fill="#212121"
     id="path1"
     style="fill:#ffffff" />
</svg>
