<?xml version="1.0" encoding="UTF-8" standalone="no"?>
<svg
   width="24"
   height="24"
   viewBox="0 0 24 24"
   fill="none"
   version="1.1"
   id="svg1"
   sodipodi:docname="ic_fluent_arrows_bidirectional_24_dark.svg"
   inkscape:version="1.3.2 (091e20e, 2023-11-25, custom)"
   xmlns:inkscape="http://www.inkscape.org/namespaces/inkscape"
   xmlns:sodipodi="http://sodipodi.sourceforge.net/DTD/sodipodi-0.dtd"
   xmlns="http://www.w3.org/2000/svg"
   xmlns:svg="http://www.w3.org/2000/svg">
  <defs
     id="defs1" />
  <sodipodi:namedview
     id="namedview1"
     pagecolor="#ffffff"
     bordercolor="#000000"
     borderopacity="0.25"
     inkscape:showpageshadow="2"
     inkscape:pageopacity="0.0"
     inkscape:pagecheckerboard="0"
     inkscape:deskcolor="#d1d1d1"
     inkscape:zoom="47.375"
     inkscape:cx="11.989446"
     inkscape:cy="12"
     inkscape:window-width="2560"
     inkscape:window-height="1351"
     inkscape:window-x="-9"
     inkscape:window-y="-9"
     inkscape:window-maximized="1"
     inkscape:current-layer="svg1" />
  <path
     d="M15.0017 8.99871H9.00469L9.00568 6.74954C9.00568 6.08985 8.21532 5.75151 7.73799 6.20686L2.23426 11.4572C1.92451 11.7527 1.92452 12.2471 2.23428 12.5426L7.73801 17.7926L7.82027 17.8612C8.30072 18.2093 9.00568 17.8729 9.00568 17.2499L9.00469 14.9997H15.0017L15.0023 17.2499C15.0023 17.9098 15.793 18.248 16.2703 17.7923L21.7674 12.5423C22.0768 12.2468 22.0768 11.7529 21.7675 11.4575L16.2703 6.20717C15.7931 5.75139 15.0023 6.08963 15.0023 6.74954L15.0017 8.99871ZM3.8377 11.9997L7.5047 8.50071L7.50568 9.74933C7.50568 10.1635 7.84147 10.4993 8.25568 10.4993H15.7523L15.854 10.4925C16.2201 10.4428 16.5023 10.129 16.5023 9.74933L16.5017 8.50271L20.1627 11.9997L16.5017 15.4957L16.5023 14.2504C16.5023 13.8362 16.1665 13.5004 15.7523 13.5004H8.25568L8.15391 13.5073C7.78783 13.5569 7.50568 13.8707 7.50568 14.2504L7.5047 15.4977L3.8377 11.9997Z"
     fill="#212121"
     id="path1"
     style="fill:#ffffff;fill-opacity:1" />
</svg>
