<?xml version="1.0" encoding="UTF-8" standalone="no"?>
<svg
   width="24"
   height="24"
   viewBox="0 0 24 24"
   fill="none"
   version="1.1"
   id="svg1"
   sodipodi:docname="ic_fluent_card_ui_24_dark.svg"
   inkscape:version="1.3.2 (091e20e, 2023-11-25, custom)"
   xmlns:inkscape="http://www.inkscape.org/namespaces/inkscape"
   xmlns:sodipodi="http://sodipodi.sourceforge.net/DTD/sodipodi-0.dtd"
   xmlns="http://www.w3.org/2000/svg"
   xmlns:svg="http://www.w3.org/2000/svg">
  <defs
     id="defs1" />
  <sodipodi:namedview
     id="namedview1"
     pagecolor="#ffffff"
     bordercolor="#000000"
     borderopacity="0.25"
     inkscape:showpageshadow="2"
     inkscape:pageopacity="0.0"
     inkscape:pagecheckerboard="0"
     inkscape:deskcolor="#d1d1d1"
     inkscape:zoom="47.375"
     inkscape:cx="11.989446"
     inkscape:cy="12"
     inkscape:window-width="2560"
     inkscape:window-height="1351"
     inkscape:window-x="-9"
     inkscape:window-y="-9"
     inkscape:window-maximized="1"
     inkscape:current-layer="svg1" />
  <path
     d="M5.25 4C3.45507 4 2 5.45507 2 7.25V16.75C2 18.5449 3.45507 20 5.25 20H18.75C20.5449 20 22 18.5449 22 16.75V7.25C22 5.45507 20.5449 4 18.75 4H5.25ZM3.5 7.25C3.5 6.2835 4.2835 5.5 5.25 5.5H18.75C19.7165 5.5 20.5 6.2835 20.5 7.25V16.75C20.5 17.7165 19.7165 18.5 18.75 18.5H5.25C4.2835 18.5 3.5 17.7165 3.5 16.75V7.25ZM5 7.75C5 7.33579 5.33579 7 5.75 7H11.25C11.6642 7 12 7.33579 12 7.75C12 8.16421 11.6642 8.5 11.25 8.5H5.75C5.33579 8.5 5 8.16421 5 7.75ZM6 13C5.44772 13 5 13.4477 5 14V16C5 16.5523 5.44772 17 6 17H13C13.5523 17 14 16.5523 14 16V14C14 13.4477 13.5523 13 13 13H6ZM5 10.25C5 9.83579 5.33579 9.5 5.75 9.5H16.25C16.6642 9.5 17 9.83579 17 10.25C17 10.6642 16.6642 11 16.25 11H5.75C5.33579 11 5 10.6642 5 10.25Z"
     fill="#212121"
     id="path1"
     style="fill:#ffffff;fill-opacity:1" />
</svg>
