<?xml version="1.0" encoding="UTF-8" standalone="no"?>
<svg
   width="24"
   height="24"
   viewBox="0 0 24 24"
   fill="none"
   version="1.1"
   id="svg1"
   sodipodi:docname="ic_fluent_identify_24_dark.svg"
   inkscape:version="1.4.2 (f4327f4, 2025-05-13)"
   xmlns:inkscape="http://www.inkscape.org/namespaces/inkscape"
   xmlns:sodipodi="http://sodipodi.sourceforge.net/DTD/sodipodi-0.dtd"
   xmlns="http://www.w3.org/2000/svg"
   xmlns:svg="http://www.w3.org/2000/svg">
  <defs
     id="defs1" />
  <sodipodi:namedview
     id="namedview1"
     pagecolor="#ffffff"
     bordercolor="#000000"
     borderopacity="0.25"
     inkscape:showpageshadow="2"
     inkscape:pageopacity="0.0"
     inkscape:pagecheckerboard="0"
     inkscape:deskcolor="#d1d1d1"
     inkscape:zoom="33.175094"
     inkscape:cx="18.221501"
     inkscape:cy="15.870339"
     inkscape:window-width="2560"
     inkscape:window-height="1351"
     inkscape:window-x="-9"
     inkscape:window-y="-9"
     inkscape:window-maximized="1"
     inkscape:current-layer="svg1" />
  <rect
     style="fill:#ffffff;fill-opacity:0.2;stroke:#ffffff;stroke-width:2.38713;stroke-linecap:round;stroke-linejoin:round;stroke-dasharray:none;stroke-opacity:1"
     id="rect1"
     width="18.244656"
     height="13.269181"
     x="4.561779"
     y="5.8170938"
     ry="2.1537201"
     rx="2.0047309" />
  <path
     style="fill:#ffffff;fill-opacity:0.2;stroke:#ffffff;stroke-width:2.38713;stroke-linecap:round;stroke-linejoin:round;stroke-dasharray:none;stroke-opacity:1"
     d="M 1.1935664,7.9376333 H 4.0411497"
     id="path1" />
  <path
     style="fill:#ffffff;fill-opacity:0.2;stroke:#ffffff;stroke-width:2.38713;stroke-linecap:round;stroke-linejoin:round;stroke-dasharray:none;stroke-opacity:1"
     d="M 1.1935664,12.4517 H 4.0411497"
     id="path1-1" />
  <path
     style="fill:#ffffff;fill-opacity:0.2;stroke:#ffffff;stroke-width:2.38713;stroke-linecap:round;stroke-linejoin:round;stroke-dasharray:none;stroke-opacity:1"
     d="M 1.1935664,16.965765 H 4.0411497"
     id="path1-1-5" />
  <path
     d="m 13.006295,12.964327 c 0,-0.276194 0.223326,-0.500099 0.498807,-0.500099 0.275481,0 0.498807,0.223905 0.498807,0.500099 v 1.500296 c 0,0.276195 -0.223326,0.500099 -0.498807,0.500099 -0.275481,0 -0.498807,-0.223904 -0.498807,-0.500099 z m 0.498807,-2.750542 c -0.413222,0 -0.74821,0.335856 -0.74821,0.750148 0,0.414291 0.334988,0.750148 0.74821,0.750148 0.413222,0 0.748211,-0.335857 0.748211,-0.750148 0,-0.414292 -0.334989,-0.750148 -0.748211,-0.750148 z m -4.9880703,2.250443 c 0,-2.761964 2.2332393,-5.0009856 4.9880703,-5.0009856 2.754832,0 4.98807,2.2390216 4.98807,5.0009856 0,2.761965 -2.233238,5.000987 -4.98807,5.000987 -2.754831,0 -4.9880703,-2.239022 -4.9880703,-5.000987 z M 13.505102,8.4634397 c -2.203869,0 -3.9904562,1.7912133 -3.9904562,4.0007883 0,2.209576 1.7865872,4.00079 3.9904562,4.00079 2.203869,0 3.990456,-1.791214 3.990456,-4.00079 0,-2.209575 -1.786587,-4.0007883 -3.990456,-4.0007883 z"
     fill="#212121"
     id="path1-8"
     style="stroke-width:0.998905;fill:#ffffff;fill-opacity:0.2" />
</svg>
