<?xml version="1.0" encoding="UTF-8" standalone="no"?>
<svg
   width="24"
   height="24"
   viewBox="0 0 24 24"
   fill="none"
   version="1.1"
   id="svg1"
   sodipodi:docname="ic_fluent_select_all_on_24_dark.svg"
   inkscape:version="1.3.2 (091e20e, 2023-11-25, custom)"
   xmlns:inkscape="http://www.inkscape.org/namespaces/inkscape"
   xmlns:sodipodi="http://sodipodi.sourceforge.net/DTD/sodipodi-0.dtd"
   xmlns="http://www.w3.org/2000/svg"
   xmlns:svg="http://www.w3.org/2000/svg">
  <defs
     id="defs1" />
  <sodipodi:namedview
     id="namedview1"
     pagecolor="#ffffff"
     bordercolor="#000000"
     borderopacity="0.25"
     inkscape:showpageshadow="2"
     inkscape:pageopacity="0.0"
     inkscape:pagecheckerboard="0"
     inkscape:deskcolor="#d1d1d1"
     inkscape:zoom="46.916667"
     inkscape:cx="12"
     inkscape:cy="12"
     inkscape:window-width="2560"
     inkscape:window-height="1351"
     inkscape:window-x="-9"
     inkscape:window-y="-9"
     inkscape:window-maximized="1"
     inkscape:current-layer="svg1" />
  <path
     d="M15.2803 9.03033C15.5732 8.73744 15.5732 8.26256 15.2803 7.96967C14.9874 7.67678 14.5126 7.67678 14.2197 7.96967L10 12.1893L8.03033 10.2197C7.73744 9.92678 7.26256 9.92678 6.96967 10.2197C6.67678 10.5126 6.67678 10.9874 6.96967 11.2803L9.46967 13.7803C9.76256 14.0732 10.2374 14.0732 10.5303 13.7803L15.2803 9.03033ZM3 6.25C3 4.45507 4.45507 3 6.25 3H15.75C17.5449 3 19 4.45507 19 6.25V15.75C19 17.5449 17.5449 19 15.75 19H6.25C4.45507 19 3 17.5449 3 15.75V6.25ZM6.25 4.5C5.2835 4.5 4.5 5.2835 4.5 6.25V15.75C4.5 16.7165 5.2835 17.5 6.25 17.5H15.75C16.7165 17.5 17.5 16.7165 17.5 15.75V6.25C17.5 5.2835 16.7165 4.5 15.75 4.5H6.25ZM9.24118 21.5C8.08967 21.5 7.07793 20.9016 6.5 19.9987H9.21565L9.24118 19.9989H16.2462C18.3188 19.9989 19.9989 18.3188 19.9989 16.2462V6.5C20.9016 7.07796 21.5 8.08964 21.5 9.24108V16.2462C21.5 19.1478 19.1478 21.5 16.2462 21.5H9.24118Z"
     fill="#212121"
     id="path1"
     style="fill:#ffffff;fill-opacity:1" />
</svg>
