<?xml version="1.0" encoding="UTF-8" standalone="no"?>
<svg
   width="24"
   height="24"
   viewBox="0 0 24 24"
   fill="none"
   version="1.1"
   id="svg1"
   sodipodi:docname="ic_fluent_text_bullet_list_square_warning_24_regular.svg"
   inkscape:version="1.4.2 (f4327f4, 2025-05-13)"
   inkscape:export-filename="ic_fluent_text_bullet_list_square_warning_24_regular.png"
   inkscape:export-xdpi="96"
   inkscape:export-ydpi="96"
   xmlns:inkscape="http://www.inkscape.org/namespaces/inkscape"
   xmlns:sodipodi="http://sodipodi.sourceforge.net/DTD/sodipodi-0.dtd"
   xmlns="http://www.w3.org/2000/svg"
   xmlns:svg="http://www.w3.org/2000/svg">
  <defs
     id="defs1" />
  <sodipodi:namedview
     id="namedview1"
     pagecolor="#ffffff"
     bordercolor="#000000"
     borderopacity="0.25"
     inkscape:showpageshadow="2"
     inkscape:pageopacity="0.0"
     inkscape:pagecheckerboard="0"
     inkscape:deskcolor="#d1d1d1"
     inkscape:zoom="32"
     inkscape:cx="2.484375"
     inkscape:cy="17.8125"
     inkscape:window-width="2560"
     inkscape:window-height="1351"
     inkscape:window-x="-9"
     inkscape:window-y="-9"
     inkscape:window-maximized="1"
     inkscape:current-layer="svg1" />
  <path
     d="m 5.71875,6.875 c 0.55228,0 1,-0.44772 1,-1 0,-0.55228 -0.44772,-1 -1,-1 -0.55228,0 -1,0.44772 -1,1 0,0.55228 0.44772,1 1,1 z m 3.5,-1.75 c -0.4142,0 -0.75,0.33579 -0.75,0.75 0,0.41421 0.3358,0.75 0.75,0.75 h 5.5 c 0.4142,0 0.75,-0.33579 0.75,-0.75 0,-0.41421 -0.3358,-0.75 -0.75,-0.75 z m 10e-5,3.7500001 c -0.4143,0 -0.75,0.3358 -0.75,0.75 0,0.4141999 0.3357,0.7499999 0.75,0.7499999 h 5.072842 l 0.772717,-0.0037 C 15.722566,9.9319585 15.720383,8.9037715 14.37165,8.8750001 Z m 0,3.7499999 h 2.7081 l -0.0083,1.484875 -2.6998,0.01512 c -0.4142935,0.0023 -0.75,-0.3358 -0.75,-0.75 0,-0.4142 0.3357,-0.75 0.75,-0.75 z m -5.0001,4.5 7.705808,0.0041 9.26e-4,1.493907 c -0.672001,0.0012 -0.449709,0.0092 -2.2825976,0.002 H 4.21875 C 2.42382,18.625 0.96875,17.1699 0.96875,15.375 V 3.8750001 c 0,-1.79493 1.45507,-3.2500001 3.25,-3.2500001 h 11.5 c 1.7949,0 3.25,1.45507 3.25,3.2500001 v 7.0930029 c 0,0 -0.630051,-0.0016 -1.382353,-0.03569 L 17.46875,3.8750001 c -0.01611,-0.9663657 -0.7835,-1.75 -1.75,-1.75 h -11.5 c -0.9665,0 -1.75,0.7835 -1.75,1.75 V 15.375 c 0,0.9665 0.7835,1.75 1.75,1.75 z m 2.5,-7.4999999 c 0,0.5522999 -0.44772,0.9999999 -1,0.9999999 -0.55228,0 -1,-0.4477 -1,-0.9999999 0,-0.5523 0.44772,-1 1,-1 0.55228,0 1,0.4477 1,1 z m -1,4.7499999 c 0.55228,0 1,-0.4477 1,-1 0,-0.5523 -0.44772,-1 -1,-1 -0.55228,0 -1,0.4477 -1,1 0,0.5523 0.44772,1 1,1 z"
     fill="#212121"
     id="path1"
     sodipodi:nodetypes="ssssssssssssssscccssccsssscccssssssccssssssssssssssss" />
  <path
     d="m 20.584591,11.699183 c 1.244208,0 2.252804,1.008614 2.252804,2.252805 v 5.406728 c 0,1.066507 -0.741023,1.959879 -1.736341,2.193329 l 1.479521,0.704017 c 0.22468,0.106928 0.320078,0.375828 0.213086,0.600507 -0.09811,0.205937 -0.332154,0.303259 -0.543556,0.235615 l -0.05695,-0.0226 -3.062432,-1.458074 h -2.199337 l -3.061663,1.458074 c -0.224667,0.106992 -0.49352,0.0116 -0.600502,-0.213025 -0.106982,-0.224678 -0.01159,-0.493574 0.21308,-0.600507 l 1.479234,-0.704077 C 13.966387,21.31841 13.22545,20.425097 13.22545,19.35871 v -5.40673 c 0,-1.24419 1.008613,-2.252802 2.252803,-2.252802 z m 1.351623,6.608224 h -7.809745 l 1.02e-4,1.051309 c 0,0.74649 0.605169,1.351683 1.351682,1.351683 h 5.106338 c 0.746549,0 1.351682,-0.605193 1.351682,-1.351683 z m -6.307774,0.600749 c 0.331787,0 0.600748,0.268953 0.600748,0.600748 0,0.331791 -0.268961,0.600747 -0.600748,0.600747 -0.331781,0 -0.600747,-0.268956 -0.600747,-0.600747 0,-0.331795 0.268966,-0.600748 0.600747,-0.600748 z m 4.805964,0 c 0.331792,0 0.600748,0.268953 0.600748,0.600748 0,0.331791 -0.268956,0.600747 -0.600748,0.600747 -0.331793,0 -0.600747,-0.268956 -0.600747,-0.600747 0,-0.331795 0.268954,-0.600748 0.600747,-0.600748 z m 0.150187,-6.307852 h -5.106338 c -0.746513,0 -1.351682,0.605169 -1.351682,1.351684 l -1.02e-4,3.454298 h 7.809745 l 5.9e-5,-3.454298 c 0,-0.746515 -0.605133,-1.351684 -1.351682,-1.351684 z m -1.802243,0.901122 c 0.24883,0 0.45056,0.201725 0.45056,0.450562 0,0.248835 -0.20173,0.45056 -0.45056,0.45056 h -1.501871 c -0.248828,0 -0.450541,-0.201725 -0.450541,-0.45056 0,-0.248837 0.201713,-0.450562 0.450541,-0.450562 z"
     fill="#212121"
     id="path1-7"
     style="stroke-width:0.600747" />
</svg>
