<?xml version="1.0" encoding="UTF-8" standalone="no"?>
<svg
   width="24"
   height="24"
   viewBox="0 0 24 24"
   fill="none"
   version="1.1"
   id="svg1"
   sodipodi:docname="ic_fluent_identify_24_regular.svg"
   inkscape:version="1.4.2 (f4327f4, 2025-05-13)"
   xml:space="preserve"
   xmlns:inkscape="http://www.inkscape.org/namespaces/inkscape"
   xmlns:sodipodi="http://sodipodi.sourceforge.net/DTD/sodipodi-0.dtd"
   xmlns="http://www.w3.org/2000/svg"
   xmlns:svg="http://www.w3.org/2000/svg"><defs
     id="defs1" /><sodipodi:namedview
     id="namedview1"
     pagecolor="#ffffff"
     bordercolor="#000000"
     borderopacity="0.25"
     inkscape:showpageshadow="2"
     inkscape:pageopacity="0.0"
     inkscape:pagecheckerboard="0"
     inkscape:deskcolor="#d1d1d1"
     inkscape:zoom="23.458334"
     inkscape:cx="17.34991"
     inkscape:cy="26.408525"
     inkscape:window-width="2560"
     inkscape:window-height="1351"
     inkscape:window-x="-9"
     inkscape:window-y="-9"
     inkscape:window-maximized="1"
     inkscape:current-layer="g1" /><rect
     style="fill:#212121;fill-opacity:0;stroke:#212121;stroke-width:1.393;stroke-linecap:round;stroke-linejoin:round;stroke-dasharray:none;stroke-opacity:1"
     id="rect1"
     width="18.244656"
     height="13.269181"
     x="4.561779"
     y="5.8170938"
     ry="2.1537201"
     rx="2.0047309" /><path
     style="fill:#000000;fill-opacity:0;stroke:#212121;stroke-width:1.79;stroke-linecap:round;stroke-linejoin:round;stroke-dasharray:none;stroke-opacity:1"
     d="M 1.1935664,7.9376333 H 4.0411497"
     id="path1" /><path
     style="fill:#000000;fill-opacity:0;stroke:#212121;stroke-width:1.79;stroke-linecap:round;stroke-linejoin:round;stroke-dasharray:none;stroke-opacity:1"
     d="M 1.1935664,12.4517 H 4.0411497"
     id="path1-1" /><path
     style="fill:#000000;fill-opacity:0;stroke:#212121;stroke-width:1.79;stroke-linecap:round;stroke-linejoin:round;stroke-dasharray:none;stroke-opacity:1"
     d="M 1.1935664,16.965765 H 4.0411497"
     id="path1-1-5" /><g
     style="fill:none"
     id="g1"
     transform="translate(7.7198298,6.4514143)"><g
       style="fill:none;stroke-width:1.52401;stroke-dasharray:none"
       id="g2"
       transform="matrix(0.87889727,0,0,0.87889727,-5.6222346,-3.7957731)"><path
         d="m 12.87055,9.3833055 c 0.3797,-2e-4 0.6937,0.2817 0.7436,0.6477995 l 0.0069,0.1017 0.0036,5.5016 c 3e-4,0.4142 -0.3353,0.7503 -0.7495,0.7505 -0.3797,3e-4 -0.6937,-0.2817 -0.7436,-0.6477 l -0.0069,-0.1018 -0.0036,-5.5016 c -2e-4,-0.4141995 0.3353,-0.7501995 0.7495,-0.7504995 z m 0.0041,-3.49774 c 0.5516,0 0.9987,0.44712 0.9987,0.99867 0,0.55154 -0.4471,0.99866 -0.9987,0.99866 -0.5515,0 -0.9986,-0.44712 -0.9986,-0.99866 0,-0.55155 0.4471,-0.99867 0.9986,-0.99867 z"
         fill="#212121"
         id="path1-14"
         sodipodi:nodetypes="cccccccccsssss"
         style="stroke-width:1.52401;stroke-dasharray:none" /></g></g></svg>
